<svg xmlns="http://www.w3.org/2000/svg" xmlns:xlink="http://www.w3.org/1999/xlink" width="84.858" height="60.893" viewBox="0 0 84.858 60.893">
  <defs>
    <clipPath id="clip-path">
      <path id="Caminho_12764" data-name="Caminho 12764" d="M0,0H84.858V-60.893H0Z" fill="none"/>
    </clipPath>
  </defs>
  <g id="bg_conhecaolivro" transform="translate(0 60.893)">
    <g id="Grupo_5059" data-name="Grupo 5059" clip-path="url(#clip-path)">
      <g id="Grupo_5049" data-name="Grupo 5049" transform="translate(4.664 -56.927)">
        <path id="Caminho_12754" data-name="Caminho 12754" d="M0,0H0A13.5,13.5,0,0,1,9.55-3.966,13.5,13.5,0,0,0-.052,0L-24.336,24.285l9.526,9.526a13.541,13.541,0,0,1,0,19.151,13.5,13.5,0,0,1-9.526,3.965,13.5,13.5,0,0,0,9.625-3.965L9.55,28.7,0,19.151A13.543,13.543,0,0,1,0,0" fill="#ff9027"/>
      </g>
      <g id="Grupo_5050" data-name="Grupo 5050" transform="translate(-10.146 -3.965)">
        <path id="Caminho_12755" data-name="Caminho 12755" d="M0,0A13.541,13.541,0,0,0,0-19.151l-9.526-9.527-9.527,9.527A13.543,13.543,0,0,0-19.053,0,13.5,13.5,0,0,0-9.526,3.965,13.5,13.5,0,0,0,0,0" fill="#d8389c"/>
      </g>
      <g id="Grupo_5051" data-name="Grupo 5051" transform="translate(48.1 0)">
        <path id="Caminho_12756" data-name="Caminho 12756" d="M0,0A13.5,13.5,0,0,1-9.526-3.965a13.541,13.541,0,0,1,0-19.151L0-32.643-24.285-56.927a13.5,13.5,0,0,0-9.6-3.966,13.5,13.5,0,0,1,9.55,3.966,13.543,13.543,0,0,1,0,19.151l-9.55,9.55L-9.625-3.965A13.5,13.5,0,0,0,0,0" fill="#50c6a8"/>
      </g>
      <g id="Grupo_5052" data-name="Grupo 5052" transform="translate(23.763 -56.927)">
        <path id="Caminho_12757" data-name="Caminho 12757" d="M0,0H0A13.5,13.5,0,0,0-9.55-3.966,13.5,13.5,0,0,0-19.1,0a13.543,13.543,0,0,0,0,19.151l9.55,9.55L0,19.151A13.543,13.543,0,0,0,0,0" fill="#e2e365"/>
      </g>
      <g id="Grupo_5053" data-name="Grupo 5053" transform="translate(38.573 -3.965)">
        <path id="Caminho_12758" data-name="Caminho 12758" d="M0,0H0A13.5,13.5,0,0,0,9.526,3.965,13.5,13.5,0,0,0,19.053,0a13.543,13.543,0,0,0,0-19.151L9.526-28.678,0-19.151A13.543,13.543,0,0,0,0,0" fill="#2268b8"/>
      </g>
      <g id="Grupo_5054" data-name="Grupo 5054" transform="translate(67.805 -21.384)">
        <path id="Caminho_12759" data-name="Caminho 12759" d="M0,0H0A6.086,6.086,0,0,1-4.3,1.788,6.085,6.085,0,0,0,.023,0L10.971-10.947l-4.295-4.3a6.1,6.1,0,0,1,0-8.633,6.086,6.086,0,0,1,4.295-1.788,6.083,6.083,0,0,0-4.339,1.788L-4.3-12.938,0-8.633A6.1,6.1,0,0,1,0,0" fill="#ff9027"/>
      </g>
      <g id="Grupo_5055" data-name="Grupo 5055" transform="translate(74.482 -45.259)">
        <path id="Caminho_12760" data-name="Caminho 12760" d="M0,0A6.1,6.1,0,0,0,0,8.633l4.294,4.3,4.295-4.3A6.089,6.089,0,1,0,0,0" fill="#d8389c"/>
      </g>
      <g id="Grupo_5056" data-name="Grupo 5056" transform="translate(48.224 -47.047)">
        <path id="Caminho_12761" data-name="Caminho 12761" d="M0,0A6.082,6.082,0,0,1,4.294,1.788a6.1,6.1,0,0,1,0,8.633L0,14.715,10.947,25.663a6.087,6.087,0,0,0,4.329,1.788,6.105,6.105,0,0,1-4.305-10.422l4.305-4.3L4.339,1.788A6.083,6.083,0,0,0,0,0" fill="#50c6a8"/>
      </g>
      <g id="Grupo_5057" data-name="Grupo 5057" transform="translate(59.195 -21.384)">
        <path id="Caminho_12762" data-name="Caminho 12762" d="M0,0H0A6.086,6.086,0,0,0,4.3,1.788,6.086,6.086,0,0,0,8.61,0a6.1,6.1,0,0,0,0-8.633l-4.3-4.3L0-8.633A6.1,6.1,0,0,0,0,0" fill="#e2e365"/>
      </g>
      <g id="Grupo_5058" data-name="Grupo 5058" transform="translate(52.519 -45.259)">
        <path id="Caminho_12763" data-name="Caminho 12763" d="M0,0H0A6.088,6.088,0,0,0-4.294-1.788,6.089,6.089,0,0,0-8.589,0a6.1,6.1,0,0,0,0,8.633l4.295,4.3L0,8.633A6.1,6.1,0,0,0,0,0" fill="#2268b8"/>
      </g>
    </g>
  </g>
</svg>
