<svg xmlns="http://www.w3.org/2000/svg" width="68.765" height="28.442" viewBox="0 0 68.765 28.442">
  <g id="bg_dialogandocompv" transform="translate(-1371 -586.769)">
    <g id="Grupo_1094" data-name="Grupo 1094" transform="translate(1388.775 605.014)">
      <path id="Caminho_10397" data-name="Caminho 10397" d="M0,0,8.622,8.622,25.291-8.048,16.67-16.67Z" fill="#ff9027"/>
    </g>
    <g id="Grupo_1095" data-name="Grupo 1095" transform="translate(1372.561 596.966)">
      <path id="Caminho_10398" data-name="Caminho 10398" d="M0,0,8.622-8.622,25.291,8.048,16.67,16.67Z" fill="#50c6a8"/>
    </g>
    <g id="Grupo_1096" data-name="Grupo 1096" transform="translate(1372.788 588.557)">
      <path id="Caminho_10399" data-name="Caminho 10399" d="M0,0H0A6.1,6.1,0,1,1,8.61,8.633l-4.3,4.3L0,8.633A6.1,6.1,0,0,1,0,0" fill="#2268b8"/>
    </g>
    <path id="Caminho_10400" data-name="Caminho 10400" d="M38.3-31.427H62.677V-43.62H38.3Z" transform="translate(1371 630.538)" fill="#50c6a8"/>
    <g id="Grupo_1097" data-name="Grupo 1097" transform="translate(1409.29 586.917)">
      <path id="Caminho_10401" data-name="Caminho 10401" d="M0,0H0A6.083,6.083,0,0,0-4.308,1.78a6.085,6.085,0,0,0-1.78,4.308,6.1,6.1,0,0,0,6.1,6.105H6.105V6.105A6.1,6.1,0,0,0,0,0" fill="#e2e365"/>
    </g>
    <g id="Grupo_1098" data-name="Grupo 1098" transform="translate(1389.002 613.423)">
      <path id="Caminho_10402" data-name="Caminho 10402" d="M0,0H0A6.086,6.086,0,0,0,4.3,1.788,6.086,6.086,0,0,0,8.61,0a6.1,6.1,0,0,0,0-8.633l-4.3-4.3L0-8.633A6.1,6.1,0,0,0,0,0" fill="#d8389c"/>
    </g>
    <g id="Grupo_1099" data-name="Grupo 1099" transform="translate(1433.692 599.095)">
      <path id="Caminho_10403" data-name="Caminho 10403" d="M0,0H0A6.085,6.085,0,0,0,4.3-1.773a6.086,6.086,0,0,0,1.772-4.3,6.1,6.1,0,0,0-6.1-6.105H-6.105v6.073A6.1,6.1,0,0,0,0,0" fill="#d8389c"/>
    </g>
  </g>
</svg>
