<svg xmlns="http://www.w3.org/2000/svg" width="41.544" height="41.565" viewBox="0 0 41.544 41.565">
  <g id="bg_evento" transform="translate(-640.024 -663.53)">
    <g id="Grupo_766" data-name="Grupo 766" transform="translate(676.363 684.253)">
      <path id="Caminho_736" data-name="Caminho 736" d="M0,0-5.2,5.2,0,10.411,5.2,5.2Z" fill="#ffe3de"/>
    </g>
    <g id="Grupo_767" data-name="Grupo 767" transform="translate(676.363 694.685)">
      <path id="Caminho_737" data-name="Caminho 737" d="M0,0-5.2,5.2,0,10.411,5.2,5.2Z" fill="#ffe3de"/>
    </g>
    <g id="Grupo_768" data-name="Grupo 768" transform="translate(676.363 673.915)">
      <path id="Caminho_738" data-name="Caminho 738" d="M0,0-5.2,5.2,0,10.411,5.2,5.2Z" fill="#ffe3de"/>
    </g>
    <g id="Grupo_769" data-name="Grupo 769" transform="translate(676.363 663.53)">
      <path id="Caminho_739" data-name="Caminho 739" d="M0,0-5.2,5.2,0,10.411,5.2,5.2Z" fill="#ffe3de"/>
    </g>
    <g id="Grupo_770" data-name="Grupo 770" transform="translate(655.54 684.253)">
      <path id="Caminho_740" data-name="Caminho 740" d="M0,0-5.2,5.2,0,10.411,5.2,5.2Z" fill="#ffe3de"/>
    </g>
    <g id="Grupo_771" data-name="Grupo 771" transform="translate(665.952 684.253)">
      <path id="Caminho_741" data-name="Caminho 741" d="M0,0-5.2,5.2,0,10.411,5.2,5.2Z" fill="#ffe3de"/>
    </g>
    <g id="Grupo_772" data-name="Grupo 772" transform="translate(640.024 689.459)">
      <path id="Caminho_742" data-name="Caminho 742" d="M0,0,5.206,5.2,10.41,0l-5.2-5.206Z" fill="#ffe3de"/>
    </g>
    <g id="Grupo_773" data-name="Grupo 773" transform="translate(655.54 694.685)">
      <path id="Caminho_743" data-name="Caminho 743" d="M0,0-5.2,5.2,0,10.411,5.2,5.2Z" fill="#ffe3de"/>
    </g>
    <g id="Grupo_774" data-name="Grupo 774" transform="translate(665.952 694.685)">
      <path id="Caminho_744" data-name="Caminho 744" d="M0,0-5.2,5.2,0,10.411,5.2,5.2Z" fill="#ffe3de"/>
    </g>
    <g id="Grupo_775" data-name="Grupo 775" transform="translate(640.024 699.89)">
      <path id="Caminho_745" data-name="Caminho 745" d="M0,0,5.206,5.206,10.41,0l-5.2-5.2Z" fill="#ffe3de"/>
    </g>
    <g id="Grupo_776" data-name="Grupo 776" transform="translate(655.54 673.915)">
      <path id="Caminho_746" data-name="Caminho 746" d="M0,0-5.2,5.2,0,10.411,5.2,5.2Z" fill="#ffe3de"/>
    </g>
    <g id="Grupo_777" data-name="Grupo 777" transform="translate(665.952 673.915)">
      <path id="Caminho_747" data-name="Caminho 747" d="M0,0-5.2,5.2,0,10.411,5.2,5.2Z" fill="#ffe3de"/>
    </g>
    <g id="Grupo_778" data-name="Grupo 778" transform="translate(640.024 679.12)">
      <path id="Caminho_748" data-name="Caminho 748" d="M0,0,5.206,5.206,10.41,0l-5.2-5.206Z" fill="#ffe3de"/>
    </g>
    <g id="Grupo_779" data-name="Grupo 779" transform="translate(655.54 663.53)">
      <path id="Caminho_749" data-name="Caminho 749" d="M0,0-5.2,5.2,0,10.411,5.2,5.2Z" fill="#ffe3de"/>
    </g>
    <g id="Grupo_780" data-name="Grupo 780" transform="translate(665.952 663.53)">
      <path id="Caminho_750" data-name="Caminho 750" d="M0,0-5.2,5.2,0,10.411,5.2,5.2Z" fill="#ffe3de"/>
    </g>
    <g id="Grupo_781" data-name="Grupo 781" transform="translate(640.024 668.735)">
      <path id="Caminho_751" data-name="Caminho 751" d="M0,0,5.206,5.206,10.41,0l-5.2-5.2Z" fill="#ffe3de"/>
    </g>
  </g>
</svg>
