<svg xmlns="http://www.w3.org/2000/svg" xmlns:xlink="http://www.w3.org/1999/xlink" width="12.883" height="20.049" viewBox="0 0 12.883 20.049">
  <defs>
    <clipPath id="clip-path">
      <path id="Caminho_12783" data-name="Caminho 12783" d="M0-.173H12.786V-20.049H0Z" fill="none"/>
    </clipPath>
    <clipPath id="clip-path-2">
      <path id="Caminho_12790" data-name="Caminho 12790" d="M4.891-15.178a2.844,2.844,0,0,1-.767.548h0v2.758L5.393-10.6H6.55l1.443-1.441a2.865,2.865,0,0,1,4.052,0h0a2.856,2.856,0,0,1,.778,1.441h0a2.863,2.863,0,0,0-.781-1.452h0L6.907-17.194Z" fill="none"/>
    </clipPath>
    <clipPath id="clip-path-3">
      <path id="Caminho_12795" data-name="Caminho 12795" d="M0,0H12.883V-20.048H0Z" fill="none"/>
    </clipPath>
  </defs>
  <g id="bg_integrandomp" transform="translate(0 20.049)">
    <g id="Grupo_5079" data-name="Grupo 5079" clip-path="url(#clip-path)">
      <g id="Grupo_5078" data-name="Grupo 5078" transform="translate(12.044 -12.044)">
        <path id="Caminho_12782" data-name="Caminho 12782" d="M0,0H0A2.854,2.854,0,0,1,.839,2.02,2.854,2.854,0,0,0,0-.011L-5.138-5.149-7.153-3.133a2.865,2.865,0,0,1-4.052,0,2.858,2.858,0,0,1-.839-2.016A2.858,2.858,0,0,0-11.2-3.112L-6.072,2.02-4.052,0A2.865,2.865,0,0,1,0,0" fill="#ff9027"/>
      </g>
    </g>
    <g id="Grupo_5080" data-name="Grupo 5080" clip-path="url(#clip-path-2)">
      <path id="Caminho_12784" data-name="Caminho 12784" d="M8.961-20.712H8.177v1.024h.784Z" fill="#ff9027"/>
      <path id="Caminho_12785" data-name="Caminho 12785" d="M10.529-20.712H9.745v1.024h.784Z" fill="#ff9027"/>
      <path id="Caminho_12786" data-name="Caminho 12786" d="M7.394-20.712H6.61v1.024h.784Z" fill="#ff9027"/>
      <path id="Caminho_12787" data-name="Caminho 12787" d="M5.827-20.712H5.043v1.024h.784Z" fill="#ff9027"/>
      <path id="Caminho_12788" data-name="Caminho 12788" d="M13.663-20.712h-.784v1.024h.784Z" fill="#ff9027"/>
      <path id="Caminho_12789" data-name="Caminho 12789" d="M12.1-20.712h-.784v1.024H12.1Z" fill="#ff9027"/>
    </g>
    <g id="Grupo_5085" data-name="Grupo 5085" clip-path="url(#clip-path-3)">
      <g id="Grupo_5081" data-name="Grupo 5081" transform="translate(0.839 -15.178)">
        <path id="Caminho_12791" data-name="Caminho 12791" d="M0,0A2.865,2.865,0,0,0,4.052,0L6.067-2.015,4.052-4.031A2.865,2.865,0,0,0,0-4.031,2.858,2.858,0,0,0-.839-2.015,2.857,2.857,0,0,0,0,0" fill="#d8389c"/>
      </g>
      <g id="Grupo_5082" data-name="Grupo 5082" transform="translate(0 -2.855)">
        <path id="Caminho_12792" data-name="Caminho 12792" d="M0,0A2.855,2.855,0,0,1,.839-2.015a2.865,2.865,0,0,1,4.052,0L6.906,0l5.138-5.138a2.851,2.851,0,0,0,.839-2.031,2.854,2.854,0,0,1-.839,2.02,2.865,2.865,0,0,1-4.052,0l-2.02-2.02L.839-2.036A2.854,2.854,0,0,0,0,0" fill="#6cc247"/>
      </g>
      <g id="Grupo_5083" data-name="Grupo 5083" transform="translate(12.044 -8.003)">
        <path id="Caminho_12793" data-name="Caminho 12793" d="M0,0H0A2.854,2.854,0,0,0,.839-2.02,2.856,2.856,0,0,0,0-4.041a2.865,2.865,0,0,0-4.052,0L-6.072-2.02-4.052,0A2.865,2.865,0,0,0,0,0" fill="#f0e665"/>
      </g>
      <g id="Grupo_5084" data-name="Grupo 5084" transform="translate(0.839 -4.87)">
        <path id="Caminho_12794" data-name="Caminho 12794" d="M0,0H0A2.858,2.858,0,0,0,4.052,4.031L6.067,2.016,4.052,0A2.865,2.865,0,0,0,0,0" fill="#2268b8"/>
      </g>
    </g>
  </g>
</svg>
