<svg xmlns="http://www.w3.org/2000/svg" width="41.544" height="41.566" viewBox="0 0 41.544 41.566">
  <g id="bg_livro" transform="translate(-640.024 -337.189)">
    <g id="Grupo_708" data-name="Grupo 708" transform="translate(676.363 357.912)">
      <path id="Caminho_684" data-name="Caminho 684" d="M0,0-5.2,5.2,0,10.411,5.2,5.2Z" fill="#e3f5f4"/>
    </g>
    <g id="Grupo_709" data-name="Grupo 709" transform="translate(676.363 368.344)">
      <path id="Caminho_685" data-name="Caminho 685" d="M0,0-5.2,5.2,0,10.411,5.2,5.2Z" fill="#e3f5f4"/>
    </g>
    <g id="Grupo_710" data-name="Grupo 710" transform="translate(676.363 347.574)">
      <path id="Caminho_686" data-name="Caminho 686" d="M0,0-5.2,5.2,0,10.411,5.2,5.2Z" fill="#e3f5f4"/>
    </g>
    <g id="Grupo_711" data-name="Grupo 711" transform="translate(676.363 337.189)">
      <path id="Caminho_687" data-name="Caminho 687" d="M0,0-5.2,5.2,0,10.411,5.2,5.2Z" fill="#e3f5f4"/>
    </g>
    <g id="Grupo_712" data-name="Grupo 712" transform="translate(655.54 357.912)">
      <path id="Caminho_688" data-name="Caminho 688" d="M0,0-5.2,5.2,0,10.411,5.2,5.2Z" fill="#e3f5f4"/>
    </g>
    <g id="Grupo_713" data-name="Grupo 713" transform="translate(665.952 357.912)">
      <path id="Caminho_689" data-name="Caminho 689" d="M0,0-5.2,5.2,0,10.411,5.2,5.2Z" fill="#e3f5f4"/>
    </g>
    <g id="Grupo_714" data-name="Grupo 714" transform="translate(640.024 363.117)">
      <path id="Caminho_690" data-name="Caminho 690" d="M0,0,5.206,5.206,10.41,0l-5.2-5.206Z" fill="#e3f5f4"/>
    </g>
    <g id="Grupo_715" data-name="Grupo 715" transform="translate(655.54 368.344)">
      <path id="Caminho_691" data-name="Caminho 691" d="M0,0-5.2,5.2,0,10.411,5.2,5.2Z" fill="#e3f5f4"/>
    </g>
    <g id="Grupo_716" data-name="Grupo 716" transform="translate(665.952 368.344)">
      <path id="Caminho_692" data-name="Caminho 692" d="M0,0-5.2,5.2,0,10.411,5.2,5.2Z" fill="#e3f5f4"/>
    </g>
    <g id="Grupo_717" data-name="Grupo 717" transform="translate(640.024 373.549)">
      <path id="Caminho_693" data-name="Caminho 693" d="M0,0,5.206,5.206,10.41,0l-5.2-5.206Z" fill="#e3f5f4"/>
    </g>
    <g id="Grupo_718" data-name="Grupo 718" transform="translate(655.54 347.574)">
      <path id="Caminho_694" data-name="Caminho 694" d="M0,0-5.2,5.2,0,10.411,5.2,5.2Z" fill="#e3f5f4"/>
    </g>
    <g id="Grupo_719" data-name="Grupo 719" transform="translate(665.952 347.574)">
      <path id="Caminho_695" data-name="Caminho 695" d="M0,0-5.2,5.2,0,10.411,5.2,5.2Z" fill="#e3f5f4"/>
    </g>
    <g id="Grupo_720" data-name="Grupo 720" transform="translate(640.024 352.78)">
      <path id="Caminho_696" data-name="Caminho 696" d="M0,0,5.206,5.2,10.41,0l-5.2-5.206Z" fill="#e3f5f4"/>
    </g>
    <g id="Grupo_721" data-name="Grupo 721" transform="translate(655.54 337.189)">
      <path id="Caminho_697" data-name="Caminho 697" d="M0,0-5.2,5.2,0,10.411,5.2,5.2Z" fill="#e3f5f4"/>
    </g>
    <g id="Grupo_722" data-name="Grupo 722" transform="translate(665.952 337.189)">
      <path id="Caminho_698" data-name="Caminho 698" d="M0,0-5.2,5.2,0,10.411,5.2,5.2Z" fill="#e3f5f4"/>
    </g>
    <g id="Grupo_723" data-name="Grupo 723" transform="translate(640.024 342.395)">
      <path id="Caminho_699" data-name="Caminho 699" d="M0,0,5.206,5.206,10.41,0l-5.2-5.206Z" fill="#e3f5f4"/>
    </g>
  </g>
</svg>
