<svg xmlns="http://www.w3.org/2000/svg" width="27.443" height="57.28" viewBox="0 0 27.443 57.28">
  <g id="bg_mesmotempopv" transform="translate(-847.603 -70.72)">
    <g id="Grupo_1060" data-name="Grupo 1060" transform="translate(849.389 102.715)">
      <path id="Caminho_10160" data-name="Caminho 10160" d="M0,0A6.1,6.1,0,0,1,8.627,0l4.292,4.291L23.859-6.648a6.1,6.1,0,0,0,0-8.628,6.1,6.1,0,0,0-8.628,0L0-.044A6.076,6.076,0,0,0-1.786,4.291,6.077,6.077,0,0,1,0,0" fill="#ff9027"/>
    </g>
    <g id="Grupo_1061" data-name="Grupo 1061" transform="translate(849.71 81.089)">
      <path id="Caminho_10161" data-name="Caminho 10161" d="M0,0A6.1,6.1,0,0,0,8.627,0l4.292-4.291L23.537,6.327a6.1,6.1,0,0,1-8.627,8.627L0,.044A6.076,6.076,0,0,1-1.786-4.291,6.077,6.077,0,0,0,0,0" fill="#50c6a8"/>
    </g>
    <g id="Grupo_1062" data-name="Grupo 1062" transform="translate(849.71 72.506)">
      <path id="Caminho_10162" data-name="Caminho 10162" d="M0,0A6.1,6.1,0,0,1,8.627,0l4.292,4.291L8.627,8.583A6.085,6.085,0,1,1,0,0" fill="#d8389c"/>
    </g>
    <g id="Grupo_1063" data-name="Grupo 1063" transform="translate(849.173 111.081)">
      <path id="Caminho_10163" data-name="Caminho 10163" d="M0,0,.217.217C.144.144.08.065.011-.011Z" fill="#37bf97"/>
    </g>
    <g id="Grupo_1064" data-name="Grupo 1064" transform="translate(858.017 102.715)">
      <path id="Caminho_10164" data-name="Caminho 10164" d="M0,0-.239-.239l-.012.012c.084.075.17.146.251.227" fill="#37bf97"/>
    </g>
    <g id="Grupo_1065" data-name="Grupo 1065" transform="translate(873.41 118.108)">
      <path id="Caminho_10165" data-name="Caminho 10165" d="M0,0-11.1-11.1-15.393-6.81a6.1,6.1,0,0,1-8.628,0L-8.6,8.6Z" fill="#50c6a8"/>
    </g>
    <g id="Grupo_1066" data-name="Grupo 1066" transform="translate(873.259 96.032)">
      <path id="Caminho_10166" data-name="Caminho 10166" d="M0,0H0A6.083,6.083,0,0,0,1.787-4.3,6.083,6.083,0,0,0,0-8.6a6.1,6.1,0,0,0-8.627,0l-4.3,4.3,4.3,4.3A6.1,6.1,0,0,0,0,0" fill="#e2e365"/>
    </g>
    <g id="Grupo_1067" data-name="Grupo 1067" transform="translate(872.921 126.213)">
      <path id="Caminho_10167" data-name="Caminho 10167" d="M0,0H0A6.083,6.083,0,0,0,1.787-4.3,6.083,6.083,0,0,0,0-8.6a6.1,6.1,0,0,0-8.627,0l-4.3,4.3,4.3,4.3A6.1,6.1,0,0,0,0,0" fill="#2268b8"/>
    </g>
    <g id="Grupo_1068" data-name="Grupo 1068" transform="translate(849.389 111.298)">
      <path id="Caminho_10168" data-name="Caminho 10168" d="M0,0A6.1,6.1,0,0,0,8.627,0l4.292-4.291L8.627-8.583A6.1,6.1,0,0,0,0-8.583,6.077,6.077,0,0,0-1.786-4.291,6.077,6.077,0,0,0,0,0" fill="#d8389c"/>
    </g>
  </g>
</svg>
