<svg xmlns="http://www.w3.org/2000/svg" xmlns:xlink="http://www.w3.org/1999/xlink" width="60.893" height="84.858" viewBox="0 0 60.893 84.858">
  <defs>
    <clipPath id="clip-path">
      <path id="Caminho_10925" data-name="Caminho 10925" d="M0,0H60.893V-84.858H0Z" fill="none"/>
    </clipPath>
  </defs>
  <g id="bg_sumario" transform="translate(0 84.858)">
    <g id="Grupo_3210" data-name="Grupo 3210" clip-path="url(#clip-path)">
      <g id="Grupo_3200" data-name="Grupo 3200" transform="translate(56.927 -80.195)">
        <path id="Caminho_10915" data-name="Caminho 10915" d="M0,0H0A13.5,13.5,0,0,1,3.966,9.55,13.5,13.5,0,0,0,0-.052L-24.285-24.336l-9.526,9.526a13.541,13.541,0,0,1-19.151,0,13.5,13.5,0,0,1-3.965-9.526,13.5,13.5,0,0,0,3.965,9.625L-28.7,9.55-19.151,0A13.543,13.543,0,0,1,0,0" fill="#ff9027"/>
      </g>
      <g id="Grupo_3201" data-name="Grupo 3201" transform="translate(3.965 -95.005)">
        <path id="Caminho_10916" data-name="Caminho 10916" d="M0,0A13.541,13.541,0,0,0,19.151,0l9.527-9.526-9.527-9.527A13.543,13.543,0,0,0,0-19.053,13.5,13.5,0,0,0-3.965-9.526,13.5,13.5,0,0,0,0,0" fill="#d8389c"/>
      </g>
      <g id="Grupo_3202" data-name="Grupo 3202" transform="translate(0 -36.759)">
        <path id="Caminho_10917" data-name="Caminho 10917" d="M0,0A13.5,13.5,0,0,1,3.965-9.526a13.541,13.541,0,0,1,19.151,0L32.643,0,56.927-24.285a13.5,13.5,0,0,0,3.966-9.6,13.5,13.5,0,0,1-3.966,9.55,13.543,13.543,0,0,1-19.151,0l-9.55-9.55L3.965-9.625A13.5,13.5,0,0,0,0,0" fill="#50c6a8"/>
      </g>
      <g id="Grupo_3203" data-name="Grupo 3203" transform="translate(56.927 -61.095)">
        <path id="Caminho_10918" data-name="Caminho 10918" d="M0,0H0A13.5,13.5,0,0,0,3.966-9.55,13.5,13.5,0,0,0,0-19.1a13.543,13.543,0,0,0-19.151,0L-28.7-9.55-19.151,0A13.543,13.543,0,0,0,0,0" fill="#e2e365"/>
      </g>
      <g id="Grupo_3204" data-name="Grupo 3204" transform="translate(3.965 -46.285)">
        <path id="Caminho_10919" data-name="Caminho 10919" d="M0,0H0A13.507,13.507,0,0,0,19.151,19.053l9.527-9.527L19.151,0A13.543,13.543,0,0,0,0,0" fill="#2268b8"/>
      </g>
      <g id="Grupo_3205" data-name="Grupo 3205" transform="translate(21.384 -17.053)">
        <path id="Caminho_10920" data-name="Caminho 10920" d="M0,0H0A6.086,6.086,0,0,1-1.788-4.3,6.085,6.085,0,0,0,0,.023L10.947,10.971l4.3-4.295a6.1,6.1,0,0,1,10.421,4.295,6.083,6.083,0,0,0-1.788-4.339L12.938-4.3,8.633,0A6.1,6.1,0,0,1,0,0" fill="#ff9027"/>
      </g>
      <g id="Grupo_3206" data-name="Grupo 3206" transform="translate(45.259 -10.377)">
        <path id="Caminho_10921" data-name="Caminho 10921" d="M0,0A6.1,6.1,0,0,0-8.633,0l-4.3,4.294,4.3,4.295A6.1,6.1,0,0,0,0,8.589,6.089,6.089,0,0,0,1.788,4.294,6.088,6.088,0,0,0,0,0" fill="#d8389c"/>
      </g>
      <g id="Grupo_3207" data-name="Grupo 3207" transform="translate(47.047 -36.634)">
        <path id="Caminho_10922" data-name="Caminho 10922" d="M0,0A6.082,6.082,0,0,1-1.788,4.294a6.1,6.1,0,0,1-8.633,0L-14.715,0-25.663,10.947a6.087,6.087,0,0,0-1.788,4.329,6.085,6.085,0,0,1,1.788-4.305,6.106,6.106,0,0,1,8.634,0l4.3,4.305L-1.788,4.339A6.083,6.083,0,0,0,0,0" fill="#50c6a8"/>
      </g>
      <g id="Grupo_3208" data-name="Grupo 3208" transform="translate(21.384 -25.663)">
        <path id="Caminho_10923" data-name="Caminho 10923" d="M0,0H0A6.1,6.1,0,0,0,8.633,8.61l4.3-4.3L8.633,0A6.1,6.1,0,0,0,0,0" fill="#e2e365"/>
      </g>
      <g id="Grupo_3209" data-name="Grupo 3209" transform="translate(45.259 -32.34)">
        <path id="Caminho_10924" data-name="Caminho 10924" d="M0,0H0A6.088,6.088,0,0,0,1.788-4.294,6.089,6.089,0,0,0,0-8.589a6.1,6.1,0,0,0-8.633,0l-4.3,4.295L-8.633,0A6.1,6.1,0,0,0,0,0" fill="#2268b8"/>
      </g>
    </g>
  </g>
</svg>
