<svg xmlns="http://www.w3.org/2000/svg" width="41.544" height="41.566" viewBox="0 0 41.544 41.566">
  <g id="bg_site" transform="translate(-640.025 -571.118)">
    <g id="Grupo_747" data-name="Grupo 747" transform="translate(676.363 591.841)">
      <path id="Caminho_719" data-name="Caminho 719" d="M0,0-5.2,5.2,0,10.411,5.2,5.2Z" fill="#fff0d3"/>
    </g>
    <g id="Grupo_748" data-name="Grupo 748" transform="translate(676.363 602.273)">
      <path id="Caminho_720" data-name="Caminho 720" d="M0,0-5.2,5.2,0,10.411,5.2,5.2Z" fill="#fff0d3"/>
    </g>
    <g id="Grupo_749" data-name="Grupo 749" transform="translate(676.363 581.504)">
      <path id="Caminho_721" data-name="Caminho 721" d="M0,0-5.2,5.2,0,10.411,5.2,5.2Z" fill="#fff0d3"/>
    </g>
    <g id="Grupo_750" data-name="Grupo 750" transform="translate(676.363 571.119)">
      <path id="Caminho_722" data-name="Caminho 722" d="M0,0-5.2,5.2,0,10.411,5.2,5.2Z" fill="#fff0d3"/>
    </g>
    <g id="Grupo_751" data-name="Grupo 751" transform="translate(655.541 591.841)">
      <path id="Caminho_723" data-name="Caminho 723" d="M0,0-5.2,5.2,0,10.411,5.2,5.2Z" fill="#fff0d3"/>
    </g>
    <g id="Grupo_752" data-name="Grupo 752" transform="translate(665.953 591.841)">
      <path id="Caminho_724" data-name="Caminho 724" d="M0,0-5.2,5.2,0,10.411,5.2,5.2Z" fill="#fff0d3"/>
    </g>
    <g id="Grupo_753" data-name="Grupo 753" transform="translate(640.025 597.047)">
      <path id="Caminho_725" data-name="Caminho 725" d="M0,0,5.206,5.206,10.41,0l-5.2-5.206Z" fill="#fff0d3"/>
    </g>
    <g id="Grupo_754" data-name="Grupo 754" transform="translate(655.541 602.273)">
      <path id="Caminho_726" data-name="Caminho 726" d="M0,0-5.2,5.2,0,10.411,5.2,5.2Z" fill="#fff0d3"/>
    </g>
    <g id="Grupo_755" data-name="Grupo 755" transform="translate(665.953 602.273)">
      <path id="Caminho_727" data-name="Caminho 727" d="M0,0-5.2,5.2,0,10.411,5.2,5.2Z" fill="#fff0d3"/>
    </g>
    <g id="Grupo_756" data-name="Grupo 756" transform="translate(640.025 607.479)">
      <path id="Caminho_728" data-name="Caminho 728" d="M0,0,5.206,5.2,10.41,0l-5.2-5.206Z" fill="#fff0d3"/>
    </g>
    <g id="Grupo_757" data-name="Grupo 757" transform="translate(655.541 581.504)">
      <path id="Caminho_729" data-name="Caminho 729" d="M0,0-5.2,5.2,0,10.411,5.2,5.2Z" fill="#fff0d3"/>
    </g>
    <g id="Grupo_758" data-name="Grupo 758" transform="translate(665.953 581.504)">
      <path id="Caminho_730" data-name="Caminho 730" d="M0,0-5.2,5.2,0,10.411,5.2,5.2Z" fill="#fff0d3"/>
    </g>
    <g id="Grupo_759" data-name="Grupo 759" transform="translate(640.025 586.708)">
      <path id="Caminho_731" data-name="Caminho 731" d="M0,0,5.206,5.206,10.41,0l-5.2-5.2Z" fill="#fff0d3"/>
    </g>
    <g id="Grupo_760" data-name="Grupo 760" transform="translate(655.541 571.119)">
      <path id="Caminho_732" data-name="Caminho 732" d="M0,0-5.2,5.2,0,10.411,5.2,5.2Z" fill="#fff0d3"/>
    </g>
    <g id="Grupo_761" data-name="Grupo 761" transform="translate(665.953 571.119)">
      <path id="Caminho_733" data-name="Caminho 733" d="M0,0-5.2,5.2,0,10.411,5.2,5.2Z" fill="#fff0d3"/>
    </g>
    <g id="Grupo_762" data-name="Grupo 762" transform="translate(640.025 576.324)">
      <path id="Caminho_734" data-name="Caminho 734" d="M0,0,5.206,5.206,10.41,0l-5.2-5.206Z" fill="#fff0d3"/>
    </g>
  </g>
</svg>
