<svg xmlns="http://www.w3.org/2000/svg" xmlns:xlink="http://www.w3.org/1999/xlink" width="185.313" height="90.882" viewBox="0 0 185.313 90.882">
  <defs>
    <clipPath id="clip-path">
      <path id="Caminho_8680" data-name="Caminho 8680" d="M0,0H185.313V-90.882H0Z" fill="none"/>
    </clipPath>
    <clipPath id="clip-path-2">
      <path id="Caminho_8682" data-name="Caminho 8682" d="M62.4,0H185.313V-25.712H62.4Z" fill="none"/>
    </clipPath>
    <clipPath id="clip-path-4">
      <path id="Caminho_8686" data-name="Caminho 8686" d="M72.377-2.873H185.313v-31.2H72.377Z" fill="none"/>
    </clipPath>
  </defs>
  <g id="bg_secatividades" transform="translate(0 90.882)">
    <g id="Grupo_930" data-name="Grupo 930" clip-path="url(#clip-path)">
      <g id="Grupo_923" data-name="Grupo 923" transform="translate(81.729 -34.078)">
        <path id="Caminho_8673" data-name="Caminho 8673" d="M0,0A9.83,9.83,0,0,1-9.83-9.83v-9.778H-34.758a9.828,9.828,0,0,0-9.829,9.829A9.829,9.829,0,0,0-34.758.051H-.051A9.8,9.8,0,0,0,6.925-2.854,9.8,9.8,0,0,1,0,0" fill="#ff9027"/>
      </g>
      <g id="Grupo_924" data-name="Grupo 924" transform="translate(56.723 -9.804)">
        <path id="Caminho_8674" data-name="Caminho 8674" d="M0,0A9.83,9.83,0,0,0-9.83-9.83h-9.778v-24.2a9.829,9.829,0,0,1,9.829-9.83,9.83,9.83,0,0,1,9.83,9.83V-.051A9.8,9.8,0,0,1-2.854,6.925,9.8,9.8,0,0,0,0,0" fill="#50c6a8"/>
      </g>
      <g id="Grupo_925" data-name="Grupo 925" transform="translate(91.508 -43.363)">
        <path id="Caminho_8675" data-name="Caminho 8675" d="M0,0V-.494C0-.327-.017-.165-.025,0Z" fill="#37bf97"/>
      </g>
      <g id="Grupo_926" data-name="Grupo 926" transform="translate(71.9 -43.907)">
        <path id="Caminho_8676" data-name="Caminho 8676" d="M0,0V.545H.027C.018.363,0,.184,0,0" fill="#37bf97"/>
      </g>
      <g id="Grupo_927" data-name="Grupo 927" transform="translate(71.9 -90.882)">
        <path id="Caminho_8677" data-name="Caminho 8677" d="M0,0V37.195H9.779a9.829,9.829,0,0,1,9.829,9.83V0Z" fill="#50c6a8"/>
      </g>
      <g id="Grupo_928" data-name="Grupo 928" transform="translate(46.918 -53.66)">
        <path id="Caminho_8678" data-name="Caminho 8678" d="M0,0H0A9.8,9.8,0,0,0-6.937,2.866,9.8,9.8,0,0,0-9.8,9.8a9.829,9.829,0,0,0,9.83,9.829h9.8V9.83A9.83,9.83,0,0,0,0,0" fill="#2268b8"/>
      </g>
      <g id="Grupo_929" data-name="Grupo 929" transform="translate(81.69 -87.662)">
        <path id="Caminho_8679" data-name="Caminho 8679" d="M0,0H0A9.8,9.8,0,0,0-6.937,2.866,9.8,9.8,0,0,0-9.8,9.8a9.829,9.829,0,0,0,9.83,9.829h9.8V9.83A9.83,9.83,0,0,0,0,0" fill="#e2e365"/>
      </g>
    </g>
    <g id="Grupo_932" data-name="Grupo 932" clip-path="url(#clip-path-2)">
      <g id="Grupo_931" data-name="Grupo 931" transform="translate(74.693 -25.712)">
        <path id="Caminho_8681" data-name="Caminho 8681" d="M0,0C-6.79,0-12.3,5.756-12.3,12.856S-6.79,25.712,0,25.712H98.325c6.79,0,12.3-5.756,12.3-12.856S105.115,0,98.325,0Z" fill="#ff9027"/>
      </g>
    </g>
    <g id="Grupo_934" data-name="Grupo 934" clip-path="url(#clip-path)">
      <g id="Grupo_933" data-name="Grupo 933" transform="translate(72.398 -2.873)">
        <path id="Caminho_8683" data-name="Caminho 8683" d="M0,0H0A15.577,15.577,0,0,0,11.026-4.555a15.58,15.58,0,0,0,4.556-11.026h0A15.623,15.623,0,0,0-.042-31.2H-15.624v15.581A15.624,15.624,0,0,0,0,0" fill="#e2e365"/>
      </g>
    </g>
    <g id="Grupo_936" data-name="Grupo 936" clip-path="url(#clip-path-4)">
      <g id="Grupo_935" data-name="Grupo 935" transform="translate(72.377 -34.078)">
        <path id="Caminho_8685" data-name="Caminho 8685" d="M0,0V31.2H98.083c8.2,0,14.853-6.985,14.853-15.6S106.286,0,98.083,0Z" fill="#e2e365"/>
      </g>
    </g>
    <g id="Grupo_941" data-name="Grupo 941" clip-path="url(#clip-path)">
      <g id="Grupo_937" data-name="Grupo 937" transform="translate(46.932 -0.051)">
        <path id="Caminho_8687" data-name="Caminho 8687" d="M0,0A9.83,9.83,0,0,1-9.83-9.83v-9.778H-61.1V.051H-.051A9.8,9.8,0,0,0,6.925-2.854,9.8,9.8,0,0,1,0,0" fill="#ff9027"/>
      </g>
      <g id="Grupo_938" data-name="Grupo 938" transform="translate(91.508 -43.857)">
        <path id="Caminho_8688" data-name="Caminho 8688" d="M0,0A9.83,9.83,0,0,0-9.83-9.83h-9.778V-.051a9.829,9.829,0,0,0,9.829,9.83A9.8,9.8,0,0,0-2.854,6.925,9.8,9.8,0,0,0,0,0" fill="#d8389c"/>
      </g>
      <g id="Grupo_939" data-name="Grupo 939" transform="translate(12.184 -19.632)">
        <path id="Caminho_8689" data-name="Caminho 8689" d="M0,0H0A9.8,9.8,0,0,0-6.937,2.866,9.8,9.8,0,0,0-9.8,9.8a9.829,9.829,0,0,0,9.83,9.829h9.8V9.83A9.83,9.83,0,0,0,0,0" fill="#e2e365"/>
      </g>
      <g id="Grupo_940" data-name="Grupo 940" transform="translate(46.945 -0.025)">
        <path id="Caminho_8690" data-name="Caminho 8690" d="M0,0A9.83,9.83,0,0,1-9.83-9.83v-9.778H-.051a9.829,9.829,0,0,1,9.83,9.829A9.8,9.8,0,0,1,6.925-2.854,9.8,9.8,0,0,1,0,0" fill="#d8389c"/>
      </g>
    </g>
  </g>
</svg>
