<svg xmlns="http://www.w3.org/2000/svg" xmlns:xlink="http://www.w3.org/1999/xlink" width="61" height="70" viewBox="0 0 61 70">
  <defs>
    <clipPath id="clip-path">
      <rect id="Retângulo_4232" data-name="Retângulo 4232" width="61" height="70" transform="translate(93 90)" fill="none"/>
    </clipPath>
    <clipPath id="clip-path-2">
      <path id="Caminho_8541" data-name="Caminho 8541" d="M0,0H60.893V-84.858H0Z" fill="none"/>
    </clipPath>
    <clipPath id="clip-path-3">
      <path id="Caminho_8600" data-name="Caminho 8600" d="M14.013-84.858,28.227-70.645l9.55-9.55a13.543,13.543,0,0,1,19.151,0h0a13.49,13.49,0,0,1,3.781,7.341h0V-72.9a13.5,13.5,0,0,0-3.781-7.342h0l-4.612-4.611Z" fill="none"/>
    </clipPath>
    <clipPath id="clip-path-5">
      <path id="Caminho_8667" data-name="Caminho 8667" d="M30.018-17.053a6.106,6.106,0,0,1-8.634,0h0a6.082,6.082,0,0,1-1.7-3.312h0v.025a6.08,6.08,0,0,0,1.7,3.31h0L32.332-6.082l4.294-4.3a6.1,6.1,0,0,1,8.633,0h0a6.089,6.089,0,0,1,1.788,4.3h0a6.082,6.082,0,0,0-1.788-4.339h0L34.322-21.359Z" fill="none"/>
    </clipPath>
  </defs>
  <g id="bg_tit2" transform="translate(-93 -90)" clip-path="url(#clip-path)">
    <g id="bg_tit2-2" data-name="bg_tit2" transform="translate(93 159.717)">
      <g id="Grupo_909" data-name="Grupo 909" clip-path="url(#clip-path-2)">
        <g id="Grupo_908" data-name="Grupo 908" transform="translate(56.927 -80.195)">
          <path id="Caminho_8540" data-name="Caminho 8540" d="M0,0H0A13.5,13.5,0,0,1,3.966,9.55,13.5,13.5,0,0,0,0-.052L-24.285-24.336l-9.526,9.526a13.541,13.541,0,0,1-19.151,0,13.5,13.5,0,0,1-3.965-9.526,13.5,13.5,0,0,0,3.965,9.625L-28.7,9.55-19.151,0A13.543,13.543,0,0,1,0,0" fill="#ff9027"/>
        </g>
      </g>
      <g id="Grupo_910" data-name="Grupo 910" clip-path="url(#clip-path-3)">
        <path id="Caminho_8542" data-name="Caminho 8542" d="M32.3-105.732h-3.7v4.838h3.7Z" fill="#ff9027"/>
        <path id="Caminho_8543" data-name="Caminho 8543" d="M10.077-105.732h-3.7v4.838h3.7Z" fill="#ff9027"/>
        <path id="Caminho_8544" data-name="Caminho 8544" d="M13.781-100.894h-3.7v4.838h3.7Z" fill="#ff9027"/>
        <path id="Caminho_8545" data-name="Caminho 8545" d="M17.484-96.056h-3.7v4.838h3.7Z" fill="#ff9027"/>
        <path id="Caminho_8546" data-name="Caminho 8546" d="M21.188-91.218h-3.7v4.838h3.7Z" fill="#ff9027"/>
        <path id="Caminho_8547" data-name="Caminho 8547" d="M17.484-105.732h-3.7v4.838h3.7Z" fill="#ff9027"/>
        <path id="Caminho_8548" data-name="Caminho 8548" d="M21.188-100.894h-3.7v4.838h3.7Z" fill="#ff9027"/>
        <path id="Caminho_8549" data-name="Caminho 8549" d="M24.891-96.056h-3.7v4.838h3.7Z" fill="#ff9027"/>
        <path id="Caminho_8550" data-name="Caminho 8550" d="M32.3-96.056h-3.7v4.838h3.7Z" fill="#ff9027"/>
        <path id="Caminho_8551" data-name="Caminho 8551" d="M24.891-86.38h-3.7v4.838h3.7Z" fill="#ff9027"/>
        <path id="Caminho_8552" data-name="Caminho 8552" d="M28.595-81.541h-3.7V-76.7h3.7Z" fill="#ff9027"/>
        <path id="Caminho_8553" data-name="Caminho 8553" d="M32.3-76.7h-3.7v4.838h3.7Z" fill="#ff9027"/>
        <path id="Caminho_8554" data-name="Caminho 8554" d="M28.595-91.218h-3.7v4.838h3.7Z" fill="#ff9027"/>
        <path id="Caminho_8555" data-name="Caminho 8555" d="M32.3-86.38h-3.7v4.838h3.7Z" fill="#ff9027"/>
        <path id="Caminho_8556" data-name="Caminho 8556" d="M17.484-76.7h-3.7v4.838h3.7Z" fill="#ff9027"/>
        <path id="Caminho_8557" data-name="Caminho 8557" d="M21.188-71.865h-3.7v4.838h3.7Z" fill="#ff9027"/>
        <path id="Caminho_8558" data-name="Caminho 8558" d="M21.188-81.541h-3.7V-76.7h3.7Z" fill="#ff9027"/>
        <path id="Caminho_8559" data-name="Caminho 8559" d="M24.891-76.7h-3.7v4.838h3.7Z" fill="#ff9027"/>
        <path id="Caminho_8560" data-name="Caminho 8560" d="M28.595-71.865h-3.7v4.838h3.7Z" fill="#ff9027"/>
        <path id="Caminho_8561" data-name="Caminho 8561" d="M13.781-71.865h-3.7v4.838h3.7Z" fill="#ff9027"/>
        <path id="Caminho_8562" data-name="Caminho 8562" d="M6.373-91.218h-3.7v4.838h3.7Z" fill="#ff9027"/>
        <path id="Caminho_8563" data-name="Caminho 8563" d="M10.077-86.38h-3.7v4.838h3.7Z" fill="#ff9027"/>
        <path id="Caminho_8564" data-name="Caminho 8564" d="M13.781-81.541h-3.7V-76.7h3.7Z" fill="#ff9027"/>
        <path id="Caminho_8565" data-name="Caminho 8565" d="M6.373-100.894h-3.7v4.838h3.7Z" fill="#ff9027"/>
        <path id="Caminho_8566" data-name="Caminho 8566" d="M10.077-96.056h-3.7v4.838h3.7Z" fill="#ff9027"/>
        <path id="Caminho_8567" data-name="Caminho 8567" d="M13.781-91.218h-3.7v4.838h3.7Z" fill="#ff9027"/>
        <path id="Caminho_8568" data-name="Caminho 8568" d="M17.484-86.38h-3.7v4.838h3.7Z" fill="#ff9027"/>
        <path id="Caminho_8569" data-name="Caminho 8569" d="M6.373-71.865h-3.7v4.838h3.7Z" fill="#ff9027"/>
        <path id="Caminho_8570" data-name="Caminho 8570" d="M6.373-81.541h-3.7V-76.7h3.7Z" fill="#ff9027"/>
        <path id="Caminho_8571" data-name="Caminho 8571" d="M10.077-76.7h-3.7v4.838h3.7Z" fill="#ff9027"/>
        <path id="Caminho_8572" data-name="Caminho 8572" d="M54.52-105.732h-3.7v4.838h3.7Z" fill="#ff9027"/>
        <path id="Caminho_8573" data-name="Caminho 8573" d="M58.224-100.894h-3.7v4.838h3.7Z" fill="#ff9027"/>
        <path id="Caminho_8574" data-name="Caminho 8574" d="M39.706-105.732H36v4.838h3.7Z" fill="#ff9027"/>
        <path id="Caminho_8575" data-name="Caminho 8575" d="M43.41-100.894h-3.7v4.838h3.7Z" fill="#ff9027"/>
        <path id="Caminho_8576" data-name="Caminho 8576" d="M47.113-96.056h-3.7v4.838h3.7Z" fill="#ff9027"/>
        <path id="Caminho_8577" data-name="Caminho 8577" d="M50.817-91.218h-3.7v4.838h3.7Z" fill="#ff9027"/>
        <path id="Caminho_8578" data-name="Caminho 8578" d="M47.113-105.732h-3.7v4.838h3.7Z" fill="#ff9027"/>
        <path id="Caminho_8579" data-name="Caminho 8579" d="M50.817-100.894h-3.7v4.838h3.7Z" fill="#ff9027"/>
        <path id="Caminho_8580" data-name="Caminho 8580" d="M54.52-96.056h-3.7v4.838h3.7Z" fill="#ff9027"/>
        <path id="Caminho_8581" data-name="Caminho 8581" d="M54.52-86.38h-3.7v4.838h3.7Z" fill="#ff9027"/>
        <path id="Caminho_8582" data-name="Caminho 8582" d="M58.224-81.541h-3.7V-76.7h3.7Z" fill="#ff9027"/>
        <path id="Caminho_8583" data-name="Caminho 8583" d="M58.224-91.218h-3.7v4.838h3.7Z" fill="#ff9027"/>
        <path id="Caminho_8584" data-name="Caminho 8584" d="M47.113-76.7h-3.7v4.838h3.7Z" fill="#ff9027"/>
        <path id="Caminho_8585" data-name="Caminho 8585" d="M50.817-71.865h-3.7v4.838h3.7Z" fill="#ff9027"/>
        <path id="Caminho_8586" data-name="Caminho 8586" d="M50.817-81.541h-3.7V-76.7h3.7Z" fill="#ff9027"/>
        <path id="Caminho_8587" data-name="Caminho 8587" d="M54.52-76.7h-3.7v4.838h3.7Z" fill="#ff9027"/>
        <path id="Caminho_8588" data-name="Caminho 8588" d="M58.224-71.865h-3.7v4.838h3.7Z" fill="#ff9027"/>
        <path id="Caminho_8589" data-name="Caminho 8589" d="M43.41-71.865h-3.7v4.838h3.7Z" fill="#ff9027"/>
        <path id="Caminho_8590" data-name="Caminho 8590" d="M36-91.218H32.3v4.838H36Z" fill="#ff9027"/>
        <path id="Caminho_8591" data-name="Caminho 8591" d="M39.706-86.38H36v4.838h3.7Z" fill="#ff9027"/>
        <path id="Caminho_8592" data-name="Caminho 8592" d="M43.41-81.541h-3.7V-76.7h3.7Z" fill="#ff9027"/>
        <path id="Caminho_8593" data-name="Caminho 8593" d="M36-100.894H32.3v4.838H36Z" fill="#ff9027"/>
        <path id="Caminho_8594" data-name="Caminho 8594" d="M39.706-96.056H36v4.838h3.7Z" fill="#ff9027"/>
        <path id="Caminho_8595" data-name="Caminho 8595" d="M43.41-91.218h-3.7v4.838h3.7Z" fill="#ff9027"/>
        <path id="Caminho_8596" data-name="Caminho 8596" d="M47.113-86.38h-3.7v4.838h3.7Z" fill="#ff9027"/>
        <path id="Caminho_8597" data-name="Caminho 8597" d="M36-71.865H32.3v4.838H36Z" fill="#ff9027"/>
        <path id="Caminho_8598" data-name="Caminho 8598" d="M36-81.541H32.3V-76.7H36Z" fill="#ff9027"/>
        <path id="Caminho_8599" data-name="Caminho 8599" d="M39.706-76.7H36v4.838h3.7Z" fill="#ff9027"/>
      </g>
      <g id="Grupo_916" data-name="Grupo 916" clip-path="url(#clip-path-2)">
        <g id="Grupo_911" data-name="Grupo 911" transform="translate(3.965 -95.005)">
          <path id="Caminho_8601" data-name="Caminho 8601" d="M0,0A13.541,13.541,0,0,0,19.151,0l9.527-9.526-9.527-9.527A13.543,13.543,0,0,0,0-19.053,13.5,13.5,0,0,0-3.965-9.526,13.5,13.5,0,0,0,0,0" fill="#d8389c"/>
        </g>
        <g id="Grupo_912" data-name="Grupo 912" transform="translate(0 -36.759)">
          <path id="Caminho_8602" data-name="Caminho 8602" d="M0,0A13.5,13.5,0,0,1,3.965-9.526a13.541,13.541,0,0,1,19.151,0L32.643,0,56.927-24.285a13.5,13.5,0,0,0,3.966-9.6,13.5,13.5,0,0,1-3.966,9.55,13.543,13.543,0,0,1-19.151,0l-9.55-9.55L3.965-9.625A13.5,13.5,0,0,0,0,0" fill="#50c6a8"/>
        </g>
        <g id="Grupo_913" data-name="Grupo 913" transform="translate(56.927 -61.095)">
          <path id="Caminho_8603" data-name="Caminho 8603" d="M0,0H0A13.5,13.5,0,0,0,3.966-9.55,13.5,13.5,0,0,0,0-19.1a13.543,13.543,0,0,0-19.151,0L-28.7-9.55-19.151,0A13.543,13.543,0,0,0,0,0" fill="#e2e365"/>
        </g>
        <g id="Grupo_914" data-name="Grupo 914" transform="translate(3.965 -46.285)">
          <path id="Caminho_8604" data-name="Caminho 8604" d="M0,0H0A13.507,13.507,0,0,0,19.151,19.053l9.527-9.527L19.151,0A13.543,13.543,0,0,0,0,0" fill="#2268b8"/>
        </g>
        <g id="Grupo_915" data-name="Grupo 915" transform="translate(21.384 -17.053)">
          <path id="Caminho_8605" data-name="Caminho 8605" d="M0,0H0A6.086,6.086,0,0,1-1.788-4.3,6.085,6.085,0,0,0,0,.023L10.947,10.971l4.3-4.295a6.1,6.1,0,0,1,10.421,4.295,6.083,6.083,0,0,0-1.788-4.339L12.938-4.3,8.633,0A6.1,6.1,0,0,1,0,0" fill="#ff9027"/>
        </g>
      </g>
      <g id="Grupo_917" data-name="Grupo 917" clip-path="url(#clip-path-5)">
        <path id="Caminho_8607" data-name="Caminho 8607" d="M35.826-5.541H37.5V-7.722h-1.67Z" fill="#ff9027"/>
        <path id="Caminho_8608" data-name="Caminho 8608" d="M34.156-7.722h1.67V-9.9h-1.67Z" fill="#ff9027"/>
        <path id="Caminho_8609" data-name="Caminho 8609" d="M32.487-5.541h1.67V-7.722h-1.67Z" fill="#ff9027"/>
        <path id="Caminho_8610" data-name="Caminho 8610" d="M42.5-5.541h1.67V-7.722H42.5Z" fill="#ff9027"/>
        <path id="Caminho_8611" data-name="Caminho 8611" d="M40.835-7.722h1.67V-9.9h-1.67Z" fill="#ff9027"/>
        <path id="Caminho_8612" data-name="Caminho 8612" d="M39.165-9.9h1.67v-2.181h-1.67Z" fill="#ff9027"/>
        <path id="Caminho_8613" data-name="Caminho 8613" d="M37.495-12.084h1.67v-2.181h-1.67Z" fill="#ff9027"/>
        <path id="Caminho_8614" data-name="Caminho 8614" d="M39.165-5.541h1.67V-7.722h-1.67Z" fill="#ff9027"/>
        <path id="Caminho_8615" data-name="Caminho 8615" d="M37.495-7.722h1.67V-9.9h-1.67Z" fill="#ff9027"/>
        <path id="Caminho_8616" data-name="Caminho 8616" d="M35.826-9.9H37.5v-2.181h-1.67Z" fill="#ff9027"/>
        <path id="Caminho_8617" data-name="Caminho 8617" d="M32.487-9.9h1.67v-2.181h-1.67Z" fill="#ff9027"/>
        <path id="Caminho_8618" data-name="Caminho 8618" d="M35.826-14.265H37.5v-2.181h-1.67Z" fill="#ff9027"/>
        <path id="Caminho_8619" data-name="Caminho 8619" d="M34.156-16.446h1.67v-2.181h-1.67Z" fill="#ff9027"/>
        <path id="Caminho_8620" data-name="Caminho 8620" d="M32.487-18.627h1.67v-2.181h-1.67Z" fill="#ff9027"/>
        <path id="Caminho_8621" data-name="Caminho 8621" d="M34.156-12.084h1.67v-2.181h-1.67Z" fill="#ff9027"/>
        <path id="Caminho_8622" data-name="Caminho 8622" d="M32.487-14.265h1.67v-2.181h-1.67Z" fill="#ff9027"/>
        <path id="Caminho_8623" data-name="Caminho 8623" d="M39.165-18.627h1.67v-2.181h-1.67Z" fill="#ff9027"/>
        <path id="Caminho_8624" data-name="Caminho 8624" d="M37.495-20.808h1.67v-2.181h-1.67Z" fill="#ff9027"/>
        <path id="Caminho_8625" data-name="Caminho 8625" d="M37.495-16.446h1.67v-2.181h-1.67Z" fill="#ff9027"/>
        <path id="Caminho_8626" data-name="Caminho 8626" d="M35.826-18.627H37.5v-2.181h-1.67Z" fill="#ff9027"/>
        <path id="Caminho_8627" data-name="Caminho 8627" d="M34.156-20.808h1.67v-2.181h-1.67Z" fill="#ff9027"/>
        <path id="Caminho_8628" data-name="Caminho 8628" d="M40.835-20.808h1.67v-2.181h-1.67Z" fill="#ff9027"/>
        <path id="Caminho_8629" data-name="Caminho 8629" d="M44.174-12.084h1.67v-2.181h-1.67Z" fill="#ff9027"/>
        <path id="Caminho_8630" data-name="Caminho 8630" d="M42.5-14.265h1.67v-2.181H42.5Z" fill="#ff9027"/>
        <path id="Caminho_8631" data-name="Caminho 8631" d="M40.835-16.446h1.67v-2.181h-1.67Z" fill="#ff9027"/>
        <path id="Caminho_8632" data-name="Caminho 8632" d="M44.174-7.722h1.67V-9.9h-1.67Z" fill="#ff9027"/>
        <path id="Caminho_8633" data-name="Caminho 8633" d="M42.5-9.9h1.67v-2.181H42.5Z" fill="#ff9027"/>
        <path id="Caminho_8634" data-name="Caminho 8634" d="M40.835-12.084h1.67v-2.181h-1.67Z" fill="#ff9027"/>
        <path id="Caminho_8635" data-name="Caminho 8635" d="M39.165-14.265h1.67v-2.181h-1.67Z" fill="#ff9027"/>
        <path id="Caminho_8636" data-name="Caminho 8636" d="M44.174-20.808h1.67v-2.181h-1.67Z" fill="#ff9027"/>
        <path id="Caminho_8637" data-name="Caminho 8637" d="M44.174-16.446h1.67v-2.181h-1.67Z" fill="#ff9027"/>
        <path id="Caminho_8638" data-name="Caminho 8638" d="M42.5-18.627h1.67v-2.181H42.5Z" fill="#ff9027"/>
        <path id="Caminho_8639" data-name="Caminho 8639" d="M22.469-5.541h1.67V-7.722h-1.67Z" fill="#ff9027"/>
        <path id="Caminho_8640" data-name="Caminho 8640" d="M20.8-7.722h1.67V-9.9H20.8Z" fill="#ff9027"/>
        <path id="Caminho_8641" data-name="Caminho 8641" d="M29.147-5.541h1.67V-7.722h-1.67Z" fill="#ff9027"/>
        <path id="Caminho_8642" data-name="Caminho 8642" d="M27.478-7.722h1.67V-9.9h-1.67Z" fill="#ff9027"/>
        <path id="Caminho_8643" data-name="Caminho 8643" d="M25.808-9.9h1.67v-2.181h-1.67Z" fill="#ff9027"/>
        <path id="Caminho_8644" data-name="Caminho 8644" d="M24.139-12.084h1.67v-2.181h-1.67Z" fill="#ff9027"/>
        <path id="Caminho_8645" data-name="Caminho 8645" d="M25.808-5.541h1.67V-7.722h-1.67Z" fill="#ff9027"/>
        <path id="Caminho_8646" data-name="Caminho 8646" d="M24.139-7.722h1.67V-9.9h-1.67Z" fill="#ff9027"/>
        <path id="Caminho_8647" data-name="Caminho 8647" d="M22.469-9.9h1.67v-2.181h-1.67Z" fill="#ff9027"/>
        <path id="Caminho_8648" data-name="Caminho 8648" d="M22.469-14.265h1.67v-2.181h-1.67Z" fill="#ff9027"/>
        <path id="Caminho_8649" data-name="Caminho 8649" d="M20.8-16.446h1.67v-2.181H20.8Z" fill="#ff9027"/>
        <path id="Caminho_8650" data-name="Caminho 8650" d="M20.8-12.084h1.67v-2.181H20.8Z" fill="#ff9027"/>
        <path id="Caminho_8651" data-name="Caminho 8651" d="M25.808-18.627h1.67v-2.181h-1.67Z" fill="#ff9027"/>
        <path id="Caminho_8652" data-name="Caminho 8652" d="M24.139-20.808h1.67v-2.181h-1.67Z" fill="#ff9027"/>
        <path id="Caminho_8653" data-name="Caminho 8653" d="M24.139-16.446h1.67v-2.181h-1.67Z" fill="#ff9027"/>
        <path id="Caminho_8654" data-name="Caminho 8654" d="M22.469-18.627h1.67v-2.181h-1.67Z" fill="#ff9027"/>
        <path id="Caminho_8655" data-name="Caminho 8655" d="M20.8-20.808h1.67v-2.181H20.8Z" fill="#ff9027"/>
        <path id="Caminho_8656" data-name="Caminho 8656" d="M27.478-20.808h1.67v-2.181h-1.67Z" fill="#ff9027"/>
        <path id="Caminho_8657" data-name="Caminho 8657" d="M30.817-12.084h1.67v-2.181h-1.67Z" fill="#ff9027"/>
        <path id="Caminho_8658" data-name="Caminho 8658" d="M29.147-14.265h1.67v-2.181h-1.67Z" fill="#ff9027"/>
        <path id="Caminho_8659" data-name="Caminho 8659" d="M27.478-16.446h1.67v-2.181h-1.67Z" fill="#ff9027"/>
        <path id="Caminho_8660" data-name="Caminho 8660" d="M30.817-7.722h1.67V-9.9h-1.67Z" fill="#ff9027"/>
        <path id="Caminho_8661" data-name="Caminho 8661" d="M29.147-9.9h1.67v-2.181h-1.67Z" fill="#ff9027"/>
        <path id="Caminho_8662" data-name="Caminho 8662" d="M27.478-12.084h1.67v-2.181h-1.67Z" fill="#ff9027"/>
        <path id="Caminho_8663" data-name="Caminho 8663" d="M25.808-14.265h1.67v-2.181h-1.67Z" fill="#ff9027"/>
        <path id="Caminho_8664" data-name="Caminho 8664" d="M30.817-20.808h1.67v-2.181h-1.67Z" fill="#ff9027"/>
        <path id="Caminho_8665" data-name="Caminho 8665" d="M30.817-16.446h1.67v-2.181h-1.67Z" fill="#ff9027"/>
        <path id="Caminho_8666" data-name="Caminho 8666" d="M29.147-18.627h1.67v-2.181h-1.67Z" fill="#ff9027"/>
      </g>
      <g id="Grupo_922" data-name="Grupo 922" clip-path="url(#clip-path-2)">
        <g id="Grupo_918" data-name="Grupo 918" transform="translate(45.259 -10.377)">
          <path id="Caminho_8668" data-name="Caminho 8668" d="M0,0A6.1,6.1,0,0,0-8.633,0l-4.3,4.294,4.3,4.295A6.1,6.1,0,0,0,0,8.589,6.089,6.089,0,0,0,1.788,4.294,6.088,6.088,0,0,0,0,0" fill="#d8389c"/>
        </g>
        <g id="Grupo_919" data-name="Grupo 919" transform="translate(47.047 -36.634)">
          <path id="Caminho_8669" data-name="Caminho 8669" d="M0,0A6.082,6.082,0,0,1-1.788,4.294a6.1,6.1,0,0,1-8.633,0L-14.715,0-25.663,10.947a6.087,6.087,0,0,0-1.788,4.329,6.085,6.085,0,0,1,1.788-4.305,6.106,6.106,0,0,1,8.634,0l4.3,4.305L-1.788,4.339A6.083,6.083,0,0,0,0,0" fill="#50c6a8"/>
        </g>
        <g id="Grupo_920" data-name="Grupo 920" transform="translate(21.384 -25.663)">
          <path id="Caminho_8670" data-name="Caminho 8670" d="M0,0H0A6.1,6.1,0,0,0,8.633,8.61l4.3-4.3L8.633,0A6.1,6.1,0,0,0,0,0" fill="#e2e365"/>
        </g>
        <g id="Grupo_921" data-name="Grupo 921" transform="translate(45.259 -32.34)">
          <path id="Caminho_8671" data-name="Caminho 8671" d="M0,0H0A6.088,6.088,0,0,0,1.788-4.294,6.089,6.089,0,0,0,0-8.589a6.1,6.1,0,0,0-8.633,0l-4.3,4.295L-8.633,0A6.1,6.1,0,0,0,0,0" fill="#2268b8"/>
        </g>
      </g>
    </g>
  </g>
</svg>
