<svg xmlns="http://www.w3.org/2000/svg" width="31.035" height="26.402" viewBox="0 0 31.035 26.402">
  <g id="bg_tbcapmp" transform="translate(-527.483 -979.5)">
    <g id="Grupo_5120" data-name="Grupo 5120" transform="translate(542.625 1001.713)">
      <path id="Caminho_12881" data-name="Caminho 12881" d="M0,0A3.359,3.359,0,0,0-.986-2.369a3.367,3.367,0,0,0-4.762,0L-8.117,0l-6.039-6.039a3.356,3.356,0,0,1-.986-2.387,3.353,3.353,0,0,0,.986,2.374,3.367,3.367,0,0,0,4.762,0l2.375-2.374L-.986-2.393A3.354,3.354,0,0,1,0,0" fill="#e2e365"/>
    </g>
    <g id="Grupo_5121" data-name="Grupo 5121" transform="translate(541.639 999.344)">
      <path id="Caminho_12882" data-name="Caminho 12882" d="M0,0A3.367,3.367,0,0,0-4.762,0L-7.131,2.369l2.369,2.369A3.367,3.367,0,0,0,0,4.738,3.359,3.359,0,0,0,.986,2.369,3.357,3.357,0,0,0,0,0" fill="#ff9027"/>
    </g>
    <g id="Grupo_5122" data-name="Grupo 5122" transform="translate(542.625 984.86)">
      <path id="Caminho_12883" data-name="Caminho 12883" d="M0,0A3.359,3.359,0,0,1-.986,2.369a3.367,3.367,0,0,1-4.762,0L-8.117,0l-6.039,6.039a3.356,3.356,0,0,0-.986,2.387,3.353,3.353,0,0,1,.986-2.374,3.367,3.367,0,0,1,4.762,0l2.375,2.374L-.986,2.393A3.354,3.354,0,0,0,0,0" fill="#2268b8"/>
    </g>
    <g id="Grupo_5123" data-name="Grupo 5123" transform="translate(528.469 990.912)">
      <path id="Caminho_12884" data-name="Caminho 12884" d="M0,0H0A3.363,3.363,0,0,0,4.762,4.75L7.137,2.375,4.762,0A3.367,3.367,0,0,0,0,0" fill="#6cc247"/>
    </g>
    <g id="Grupo_5124" data-name="Grupo 5124" transform="translate(541.639 987.229)">
      <path id="Caminho_12885" data-name="Caminho 12885" d="M0,0H0A3.357,3.357,0,0,0,.986-2.369,3.359,3.359,0,0,0,0-4.738a3.367,3.367,0,0,0-4.762,0L-7.131-2.369-4.762,0A3.367,3.367,0,0,0,0,0" fill="#50c6a8"/>
    </g>
    <path id="Caminho_12886" data-name="Caminho 12886" d="M0,0H31.035V-26.4H0Z" transform="translate(527.483 1005.902)" fill="none"/>
  </g>
</svg>
