<svg xmlns="http://www.w3.org/2000/svg" xmlns:xlink="http://www.w3.org/1999/xlink" width="34.729" height="25.444" viewBox="0 0 34.729 25.444">
  <defs>
    <clipPath id="clip-path">
      <rect id="Ret창ngulo_4226" data-name="Ret창ngulo 4226" width="34.729" height="25.444" transform="translate(0 0)" fill="none"/>
    </clipPath>
    <clipPath id="clip-path-2">
      <rect id="Ret창ngulo_4227" data-name="Ret창ngulo 4227" width="10.273" height="15.987" transform="translate(24.456 9.457)" fill="none"/>
    </clipPath>
  </defs>
  <g id="bg_tihoradotemamp" transform="translate(0 0)">
    <g id="Grupo_5111" data-name="Grupo 5111">
      <g id="Grupo_5110" data-name="Grupo 5110" clip-path="url(#clip-path)">
        <path id="Caminho_12842" data-name="Caminho 12842" d="M20.471,20.47h0A4.851,4.851,0,0,1,17.037,21.9,4.859,4.859,0,0,0,20.49,20.47l8.732-8.732L25.8,8.312A4.869,4.869,0,0,1,29.222,0a4.849,4.849,0,0,0-3.461,1.426L17.037,10.15l3.434,3.433a4.869,4.869,0,0,1,0,6.887" fill="#f77e0b"/>
        <path id="Caminho_12843" data-name="Caminho 12843" d="M25.8,1.426a4.869,4.869,0,0,0,0,6.887l3.426,3.425,3.425-3.425A4.857,4.857,0,1,0,25.8,1.426" fill="#bc1680"/>
        <path id="Caminho_12844" data-name="Caminho 12844" d="M4.852,0A4.869,4.869,0,0,1,8.278,8.312L4.852,11.738l8.732,8.732A4.854,4.854,0,0,0,17.037,21.9,4.869,4.869,0,0,1,13.6,13.584l3.434-3.434L8.313,1.426A4.853,4.853,0,0,0,4.852,0" fill="#49b394"/>
        <path id="Caminho_12845" data-name="Caminho 12845" d="M13.6,20.47h0a4.863,4.863,0,1,0,6.868-6.887L17.037,10.15,13.6,13.583a4.869,4.869,0,0,0,0,6.887" fill="#e5de40"/>
      </g>
    </g>
    <g id="Grupo_5113" data-name="Grupo 5113">
      <g id="Grupo_5112" data-name="Grupo 5112" clip-path="url(#clip-path-2)">
        <path id="Caminho_12846" data-name="Caminho 12846" d="M25.125,19.062h0a2.277,2.277,0,0,1-.669-1.611,2.281,2.281,0,0,0,.669,1.62l4.1,4.1,1.607-1.607a2.285,2.285,0,0,1,3.9,1.607,2.278,2.278,0,0,0-.669-1.624l-4.093-4.093-1.611,1.611a2.285,2.285,0,0,1-3.231,0" fill="#f77e0b"/>
        <path id="Caminho_12847" data-name="Caminho 12847" d="M34.06,21.56a2.285,2.285,0,0,0-3.231,0l-1.607,1.607,1.607,1.607A2.279,2.279,0,1,0,34.06,21.56" fill="#bc1680"/>
        <path id="Caminho_12848" data-name="Caminho 12848" d="M34.729,11.734a2.285,2.285,0,0,1-3.9,1.607l-1.607-1.607-4.1,4.1a2.279,2.279,0,0,0-.669,1.62,2.285,2.285,0,0,1,3.9-1.611l1.611,1.611,4.093-4.093a2.28,2.28,0,0,0,.669-1.624" fill="#70b32f"/>
        <path id="Caminho_12849" data-name="Caminho 12849" d="M25.125,15.839h0a2.281,2.281,0,0,0,3.231,3.222l1.611-1.611-1.611-1.611a2.285,2.285,0,0,0-3.231,0" fill="#e5de40"/>
        <path id="Caminho_12850" data-name="Caminho 12850" d="M34.06,13.341h0a2.279,2.279,0,0,0-3.231-3.214l-1.607,1.607,1.607,1.607a2.285,2.285,0,0,0,3.231,0" fill="#0057a5"/>
      </g>
    </g>
    <g id="Grupo_5115" data-name="Grupo 5115">
      <g id="Grupo_5114" data-name="Grupo 5114" clip-path="url(#clip-path)">
        <path id="Caminho_12851" data-name="Caminho 12851" d="M8.277,1.426a4.869,4.869,0,0,1,0,6.887L4.851,11.738,1.426,8.313A4.857,4.857,0,1,1,8.277,1.426Z" fill="#0057a5"/>
      </g>
    </g>
  </g>
</svg>
