<svg xmlns="http://www.w3.org/2000/svg" xmlns:xlink="http://www.w3.org/1999/xlink" width="17.964" height="25.552" viewBox="0 0 17.964 25.552">
  <defs>
    <clipPath id="clip-path">
      <rect id="Retângulo_4223" data-name="Retângulo 4223" width="17.964" height="25.552" transform="translate(0 0)" fill="none"/>
    </clipPath>
  </defs>
  <g id="bg_tivamosconcluirmp" transform="translate(0 0)">
    <g id="Grupo_5107" data-name="Grupo 5107" clip-path="url(#clip-path)">
      <path id="Caminho_12817" data-name="Caminho 12817" d="M2.5,6.254a3.679,3.679,0,0,0,5.2,0l2.589-2.588,6.6,6.6a3.679,3.679,0,1,1-5.2,5.2L2.5,6.281A3.664,3.664,0,0,1,1.42,3.666,3.665,3.665,0,0,0,2.5,6.254Z" fill="#f77e0b"/>
      <path id="Caminho_12818" data-name="Caminho 12818" d="M2.691,19.3a3.679,3.679,0,0,1,5.2,0l2.589,2.588,6.4-6.4a3.679,3.679,0,0,0-5.2-5.2L2.691,19.27a3.664,3.664,0,0,0-1.077,2.615A3.665,3.665,0,0,1,2.691,19.3Z" fill="#49b394"/>
      <path id="Caminho_12819" data-name="Caminho 12819" d="M16.887,10.278h0a3.674,3.674,0,0,1-5.2,5.189l-2.6-2.594,2.6-2.6a3.679,3.679,0,0,1,5.2,0" fill="#e5de40"/>
      <path id="Caminho_12820" data-name="Caminho 12820" d="M2.691,24.474a3.679,3.679,0,0,0,5.2,0l2.589-2.588L7.894,19.3a3.67,3.67,0,1,0-5.2,5.177Z" fill="#e5002b"/>
      <path id="Caminho_12821" data-name="Caminho 12821" d="M2.5,1.078a3.679,3.679,0,0,1,5.2,0l2.589,2.588L7.7,6.255A3.67,3.67,0,1,1,2.5,1.078Z" fill="#e5002b"/>
      <path id="Caminho_12822" data-name="Caminho 12822" d="M.451,10.149a1.539,1.539,0,0,0,2.178,0L3.713,9.065l2.762,2.763A1.54,1.54,0,1,1,4.3,14.006L.451,10.16A1.538,1.538,0,0,1,0,9.065,1.534,1.534,0,0,0,.451,10.149Z" fill="#49b394"/>
      <path id="Caminho_12823" data-name="Caminho 12823" d="M.532,15.61a1.539,1.539,0,0,1,2.178,0l1.084,1.084,2.681-2.682A1.54,1.54,0,0,0,4.3,11.834L.532,15.6a1.538,1.538,0,0,0-.451,1.1A1.534,1.534,0,0,1,.532,15.61Z" fill="#f77e0b"/>
      <path id="Caminho_12824" data-name="Caminho 12824" d="M6.478,11.837h0A1.538,1.538,0,0,1,4.3,14.01L3.213,12.923,4.3,11.837a1.539,1.539,0,0,1,2.178,0" fill="#e5de40"/>
      <path id="Caminho_12825" data-name="Caminho 12825" d="M.532,17.777a1.539,1.539,0,0,0,2.178,0l1.084-1.084L2.71,15.61A1.536,1.536,0,1,0,.532,17.777Z" fill="#e5002b"/>
      <path id="Caminho_12826" data-name="Caminho 12826" d="M.451,7.982a1.539,1.539,0,0,1,2.178,0L3.713,9.066,2.629,10.149A1.536,1.536,0,1,1,.451,7.982Z" fill="#e5002b"/>
    </g>
  </g>
</svg>
