<svg xmlns="http://www.w3.org/2000/svg" xmlns:xlink="http://www.w3.org/1999/xlink" width="22.836" height="35.535" viewBox="0 0 22.836 35.535">
  <defs>
    <clipPath id="clip-path">
      <path id="Caminho_12816" data-name="Caminho 12816" d="M0,0H22.836V-35.535H0Z" fill="none"/>
    </clipPath>
  </defs>
  <g id="bg_titulo2mp" transform="translate(0 35.535)">
    <g id="Grupo_5106" data-name="Grupo 5106" clip-path="url(#clip-path)">
      <g id="Grupo_5101" data-name="Grupo 5101" transform="translate(1.487 -14.186)">
        <path id="Caminho_12811" data-name="Caminho 12811" d="M0,0H0A5.061,5.061,0,0,1-1.487-3.581,5.059,5.059,0,0,0,0,.019L9.106,9.126l3.573-3.572a5.078,5.078,0,0,1,8.669,3.572,5.062,5.062,0,0,0-1.487-3.609l-9.1-9.1L7.182,0A5.079,5.079,0,0,1,0,0" fill="#ff9027"/>
      </g>
      <g id="Grupo_5102" data-name="Grupo 5102" transform="translate(21.349 -8.632)">
        <path id="Caminho_12812" data-name="Caminho 12812" d="M0,0A5.079,5.079,0,0,0-7.182,0l-3.572,3.572,3.572,3.573A5.079,5.079,0,0,0,0,7.145,5.063,5.063,0,0,0,1.487,3.572,5.063,5.063,0,0,0,0,0" fill="#d8389c"/>
      </g>
      <g id="Grupo_5103" data-name="Grupo 5103" transform="translate(22.836 -30.475)">
        <path id="Caminho_12813" data-name="Caminho 12813" d="M0,0A5.061,5.061,0,0,1-1.487,3.572a5.077,5.077,0,0,1-7.182,0L-12.241,0l-9.107,9.106a5.07,5.07,0,0,0-1.488,3.6,5.066,5.066,0,0,1,1.488-3.582,5.079,5.079,0,0,1,7.182,0l3.581,3.582,9.1-9.1A5.061,5.061,0,0,0,0,0" fill="#50c6a8"/>
      </g>
      <g id="Grupo_5104" data-name="Grupo 5104" transform="translate(1.487 -21.348)">
        <path id="Caminho_12814" data-name="Caminho 12814" d="M0,0H0A5.071,5.071,0,0,0,7.182,7.162l3.581-3.581L7.182,0A5.079,5.079,0,0,0,0,0" fill="#e2e365"/>
      </g>
      <g id="Grupo_5105" data-name="Grupo 5105" transform="translate(21.349 -26.902)">
        <path id="Caminho_12815" data-name="Caminho 12815" d="M0,0H0A5.063,5.063,0,0,0,1.487-3.572,5.063,5.063,0,0,0,0-7.145a5.079,5.079,0,0,0-7.182,0l-3.572,3.573L-7.182,0A5.079,5.079,0,0,0,0,0" fill="#2268b8"/>
      </g>
    </g>
  </g>
</svg>
