<svg xmlns="http://www.w3.org/2000/svg" xmlns:xlink="http://www.w3.org/1999/xlink" width="37.693" height="25.552" viewBox="0 0 37.693 25.552">
  <defs>
    <clipPath id="clip-path">
      <rect id="Retângulo_4229" data-name="Retângulo 4229" width="37.693" height="25.552" transform="translate(0 0)" fill="none"/>
    </clipPath>
  </defs>
  <g id="bg_tidebatemp" transform="translate(0 0)">
    <g id="Grupo_5116" data-name="Grupo 5116" clip-path="url(#clip-path)">
      <path id="Caminho_12852" data-name="Caminho 12852" d="M22.9,14.8h0a3.51,3.51,0,0,0,2.482,1.031,3.506,3.506,0,0,1-2.5-1.031L16.57,8.485l2.476-2.476A3.52,3.52,0,0,0,16.57,0a3.508,3.508,0,0,1,2.5,1.031l6.306,6.306L22.9,9.819a3.519,3.519,0,0,0,0,4.978" fill="#49b394"/>
      <path id="Caminho_12853" data-name="Caminho 12853" d="M19.046,1.031a3.519,3.519,0,0,1,0,4.978L16.57,8.485,14.094,6.009a3.511,3.511,0,1,1,4.952-4.978Z" fill="#e5de40"/>
      <path id="Caminho_12854" data-name="Caminho 12854" d="M34.186,0A3.52,3.52,0,0,0,31.71,6.009l2.476,2.476L27.874,14.8a3.509,3.509,0,0,1-2.5,1.031A3.52,3.52,0,0,0,27.86,9.819L25.378,7.337l6.306-6.306A3.51,3.51,0,0,1,34.186,0" fill="#70b32f"/>
      <path id="Caminho_12855" data-name="Caminho 12855" d="M27.861,14.8h0A3.515,3.515,0,0,1,22.9,9.819l2.482-2.482,2.483,2.482a3.519,3.519,0,0,1,0,4.978" fill="#0057a5"/>
      <path id="Caminho_12856" data-name="Caminho 12856" d="M31.71,1.031h0a3.511,3.511,0,0,1,4.952,4.978L34.186,8.485,31.71,6.009a3.519,3.519,0,0,1,0-4.978" fill="#bc1680"/>
      <path id="Caminho_12857" data-name="Caminho 12857" d="M14.8,10.755h0a3.51,3.51,0,0,0-2.482-1.031,3.506,3.506,0,0,1,2.5,1.031l6.313,6.312-2.476,2.476a3.52,3.52,0,0,0,2.476,6.009,3.508,3.508,0,0,1-2.5-1.031l-6.306-6.306L14.8,15.733a3.519,3.519,0,0,0,0-4.978" fill="#70b32f"/>
      <path id="Caminho_12858" data-name="Caminho 12858" d="M18.647,24.521a3.519,3.519,0,0,1,0-4.978l2.476-2.476L23.6,19.543a3.511,3.511,0,1,1-4.952,4.978Z" fill="#e5de40"/>
      <path id="Caminho_12859" data-name="Caminho 12859" d="M3.507,25.552a3.52,3.52,0,0,0,2.476-6.009L3.507,17.067l6.312-6.312a3.509,3.509,0,0,1,2.5-1.031,3.52,3.52,0,0,0-2.482,6.009l2.482,2.482L6.009,24.521a3.51,3.51,0,0,1-2.5,1.031" fill="#49b394"/>
      <path id="Caminho_12860" data-name="Caminho 12860" d="M9.833,10.755h0A3.515,3.515,0,0,1,14.8,15.733l-2.483,2.482L9.833,15.733a3.519,3.519,0,0,1,0-4.978" fill="#f77e0b"/>
      <path id="Caminho_12861" data-name="Caminho 12861" d="M5.983,24.521h0a3.511,3.511,0,0,1-4.952-4.978l2.476-2.476,2.476,2.476a3.519,3.519,0,0,1,0,4.978" fill="#0057a5"/>
      <path id="Caminho_12862" data-name="Caminho 12862" d="M24.559,17.337a3.436,3.436,0,0,0-.982-1.847L17.9,9.819Q16.386,8.31,14.873,6.8a3.537,3.537,0,0,0-2.012-1.035c-.129-.02-.26-.032-.389-.047h-.314c-.13.015-.26.027-.389.047A3.536,3.536,0,0,0,9.756,6.8c-.966.969-5.386,5.372-7.408,7.394a1.364,1.364,0,0,0-.307.536L.5,20.206c4.685-4.724,4.81-4.889,5.552-5.631,1.892-1.888,1.823-1.9,3.713-3.786a3.444,3.444,0,0,1,1.875-1,3.919,3.919,0,0,1,1.355,0,3.443,3.443,0,0,1,1.876,1q2.835,2.834,5.673,5.665l3.018,3.011a3.5,3.5,0,0,1,.987,1.8c.035.168.056.339.084.509V17.857c-.023-.173-.039-.348-.071-.52" fill="#bc1680"/>
    </g>
  </g>
</svg>
