<svg xmlns="http://www.w3.org/2000/svg" xmlns:xlink="http://www.w3.org/1999/xlink" width="26" height="25.8" viewBox="0 0 26 25.8">
  <defs>
    <clipPath id="clip-path">
      <rect id="Ret창ngulo_38" data-name="Ret창ngulo 38" width="26" height="25.8" transform="translate(448.457 421)" fill="#fff"/>
    </clipPath>
  </defs>
  <g id="bg_tia_2" transform="translate(-448.457 -421)" clip-path="url(#clip-path)">
    <g id="Grupo_1075" data-name="Grupo 1075" transform="translate(4.346 -7.75)">
      <path id="Caminho_1063" data-name="Caminho 1063" d="M0,0-10.6,9.429" transform="translate(469.413 420.75)" fill="none" stroke="#48ccdc" stroke-linecap="round" stroke-linejoin="round" stroke-width="1.5"/>
      <path id="Caminho_1064" data-name="Caminho 1064" d="M0,0,.031-3.847" transform="translate(445.363 447.624)" fill="none" stroke="#48ccdc" stroke-linecap="round" stroke-linejoin="round" stroke-width="1.5"/>
      <path id="Caminho_1065" data-name="Caminho 1065" d="M0,0,.353-4.169" transform="translate(450.07 456.686)" fill="none" stroke="#48ccdc" stroke-linecap="round" stroke-linejoin="round" stroke-width="1.5"/>
      <path id="Caminho_1066" data-name="Caminho 1066" d="M0,0,1.286-5.506" transform="translate(463.94 451.697)" fill="none" stroke="#48ccdc" stroke-linecap="round" stroke-linejoin="round" stroke-width="1.5"/>
      <path id="Caminho_1067" data-name="Caminho 1067" d="M0,0,1.906,4.807" transform="translate(451.957 430.906)" fill="none" stroke="#48ccdc" stroke-linecap="round" stroke-linejoin="round" stroke-width="1.5"/>
      <path id="Caminho_1068" data-name="Caminho 1068" d="M167.614,0h25.8V-25.8h-25.8Z" transform="translate(276 454.321)" fill="none"/>
      <path id="Caminho_1069" data-name="Caminho 1069" d="M0,0,.353-4.169" transform="translate(449.144 439.384)" fill="none" stroke="#48ccdc" stroke-linecap="round" stroke-linejoin="round" stroke-width="1.5"/>
      <path id="Caminho_1070" data-name="Caminho 1070" d="M0,0,7.006,4.506" transform="translate(453.575 445.426)" fill="none" stroke="#48ccdc" stroke-linecap="round" stroke-linejoin="round" stroke-width="1.5"/>
      <path id="Caminho_1071" data-name="Caminho 1071" d="M0,0-6.5.638" transform="translate(468.944 431.769)" fill="none" stroke="#48ccdc" stroke-linecap="round" stroke-linejoin="round" stroke-width="1.5"/>
      <path id="Caminho_1072" data-name="Caminho 1072" d="M0,0-9.886,2.171" transform="translate(449.59 425.664)" fill="none" stroke="#48ccdc" stroke-linecap="round" stroke-linejoin="round" stroke-width="1.5"/>
      <path id="Caminho_1073" data-name="Caminho 1073" d="M0,0-6.728-3.918" transform="translate(447.471 452.668)" fill="none" stroke="#48ccdc" stroke-linecap="round" stroke-linejoin="round" stroke-width="1.5"/>
      <path id="Caminho_1074" data-name="Caminho 1074" d="M167.614,0h25.8V-25.8h-25.8Z" transform="translate(276 454.321)" fill="none"/>
      <path id="Caminho_1075" data-name="Caminho 1075" d="M0,0,7.616-1.52" transform="translate(454.826 443.426)" fill="none" stroke="#48ccdc" stroke-linecap="round" stroke-linejoin="round" stroke-width="1.5"/>
      <path id="Caminho_1076" data-name="Caminho 1076" d="M0,0,1.295-1.693" transform="translate(465.651 429.341)" fill="none" stroke="#ff7f52" stroke-linecap="round" stroke-linejoin="round" stroke-width="1.5" stroke-dasharray="0 4.263"/>
      <path id="Caminho_1077" data-name="Caminho 1077" d="M0,0H0M-2.59,3.387h0" transform="translate(468.24 425.954)" fill="none" stroke="#48ccdc" stroke-linecap="round" stroke-linejoin="round" stroke-width="1.5"/>
      <path id="Caminho_1078" data-name="Caminho 1078" d="M0,0-7.581-8.49" transform="translate(460.214 435.337)" fill="none" stroke="#48ccdc" stroke-linecap="round" stroke-linejoin="round" stroke-width="1.5"/>
      <path id="Caminho_1079" data-name="Caminho 1079" d="M0,0,7.531,4.586" transform="translate(444.36 439.074)" fill="none" stroke="#48ccdc" stroke-linecap="round" stroke-linejoin="round" stroke-width="1.5"/>
      <path id="Caminho_1080" data-name="Caminho 1080" d="M0,0-7.677,8.85" transform="translate(468.438 437.737)" fill="none" stroke="#48ccdc" stroke-linecap="round" stroke-linejoin="round" stroke-width="1.5"/>
      <path id="Caminho_1081" data-name="Caminho 1081" d="M0,0,4.685-1.637" transform="translate(457.226 453.56)" fill="none" stroke="#48ccdc" stroke-linecap="round" stroke-linejoin="round" stroke-width="1.5"/>
      <path id="Caminho_1082" data-name="Caminho 1082" d="M0,0-.534,1.265" transform="translate(449.938 429.384)" fill="none" stroke="#ff7f52" stroke-linecap="round" stroke-linejoin="round" stroke-width="1.5" stroke-dasharray="0 2.746"/>
      <path id="Caminho_1083" data-name="Caminho 1083" d="M0,0H0M1.067-2.53h0" transform="translate(448.87 431.914)" fill="none" stroke="#48ccdc" stroke-linecap="round" stroke-linejoin="round" stroke-width="1.5"/>
      <path id="Caminho_1084" data-name="Caminho 1084" d="M167.614,0h25.8V-25.8h-25.8Z" transform="translate(276 454.321)" fill="none"/>
      <path id="Caminho_1085" data-name="Caminho 1085" d="M0,0-.8-1.13" transform="translate(454.01 440.181)" fill="none" stroke="#ff7f52" stroke-linecap="round" stroke-linejoin="round" stroke-width="1.5" stroke-dasharray="0 2.768"/>
      <path id="Caminho_1086" data-name="Caminho 1086" d="M0,0H0M1.6,2.259h0" transform="translate(452.411 437.921)" fill="#48ccdc" stroke="#48ccdc" stroke-linecap="round" stroke-linejoin="round" stroke-width="1.5"/>
      <path id="Caminho_1087" data-name="Caminho 1087" d="M0,0-.681-.954" transform="translate(465.733 436.453)" fill="none" stroke="#ff7f52" stroke-linecap="round" stroke-linejoin="round" stroke-width="1.5" stroke-dasharray="0 2.343"/>
      <path id="Caminho_1088" data-name="Caminho 1088" d="M0,0H0M1.362,1.907h0" transform="translate(464.371 434.546)" fill="none" stroke="#48ccdc" stroke-linecap="round" stroke-linejoin="round" stroke-width="1.5"/>
      <path id="Caminho_1089" data-name="Caminho 1089" d="M0,0-.681-.954" transform="translate(468.342 453.561)" fill="none" stroke="#ff7f52" stroke-linecap="round" stroke-linejoin="round" stroke-width="1.5" stroke-dasharray="0 2.343"/>
      <path id="Caminho_1090" data-name="Caminho 1090" d="M0,0H0M1.361,1.907h0" transform="translate(466.98 451.653)" fill="none" stroke="#48ccdc" stroke-linecap="round" stroke-linejoin="round" stroke-width="1.5"/>
      <path id="Caminho_1091" data-name="Caminho 1091" d="M0,0,1.81,5.227" transform="translate(466.9 442.952)" fill="none" stroke="#48ccdc" stroke-linecap="round" stroke-linejoin="round" stroke-width="1.5"/>
      <path id="Caminho_1092" data-name="Caminho 1092" d="M0,0,6.678,4.8" transform="translate(452.599 452.69)" fill="none" stroke="#48ccdc" stroke-linecap="round" stroke-linejoin="round" stroke-width="1.5"/>
      <path id="Caminho_1093" data-name="Caminho 1093" d="M0,0,3.4-7.264" transform="translate(444.041 436.275)" fill="none" stroke="#48ccdc" stroke-linecap="round" stroke-linejoin="round" stroke-width="1.5"/>
      <path id="Caminho_1094" data-name="Caminho 1094" d="M167.614,0h25.8V-25.8h-25.8Z" transform="translate(276 454.321)" fill="none"/>
      <path id="Caminho_1095" data-name="Caminho 1095" d="M0,0,6.594.845" transform="translate(457.368 438.007)" fill="none" stroke="#48ccdc" stroke-linecap="round" stroke-linejoin="round" stroke-width="1.5"/>
      <path id="Caminho_1096" data-name="Caminho 1096" d="M0,0-1.935,2.757" transform="translate(451.188 447.063)" fill="none" stroke="#48ccdc" stroke-linecap="round" stroke-linejoin="round" stroke-width="1.5"/>
      <path id="Caminho_1097" data-name="Caminho 1097" d="M0,0-1.193-1.193" transform="translate(455.463 451.035)" fill="none" stroke="#ff7f52" stroke-linecap="round" stroke-linejoin="round" stroke-width="1.5" stroke-dasharray="0 3.374"/>
      <path id="Caminho_1098" data-name="Caminho 1098" d="M0,0H0M2.386,2.386h0" transform="translate(453.078 448.649)" fill="none" stroke="#48ccdc" stroke-linecap="round" stroke-linejoin="round" stroke-width="1.5"/>
      <path id="Caminho_1099" data-name="Caminho 1099" d="M0,0-.526-.9" transform="translate(446.119 456.349)" fill="none" stroke="#ff7f52" stroke-linecap="round" stroke-linejoin="round" stroke-width="1.5" stroke-dasharray="0 2.093"/>
      <path id="Caminho_1100" data-name="Caminho 1100" d="M0,0H0M1.051,1.81h0" transform="translate(445.068 454.539)" fill="none" stroke="#48ccdc" stroke-linecap="round" stroke-linejoin="round" stroke-width="1.5"/>
      <path id="Caminho_1101" data-name="Caminho 1101" d="M0,0-4.278,1.81" transform="translate(443.546 430.686)" fill="none" stroke="#48ccdc" stroke-linecap="round" stroke-linejoin="round" stroke-width="1.5"/>
      <path id="Caminho_1102" data-name="Caminho 1102" d="M0,0-4.623-2.4" transform="translate(467.889 457.43)" fill="none" stroke="#48ccdc" stroke-linecap="round" stroke-linejoin="round" stroke-width="1.5"/>
      <path id="Caminho_1103" data-name="Caminho 1103" d="M167.614,0h25.8V-25.8h-25.8Z" transform="translate(276 454.321)" fill="none"/>
      <rect id="Ret창ngulo_37" data-name="Ret창ngulo 37" width="28" height="25.8" transform="translate(443 429)" fill="none"/>
    </g>
  </g>
</svg>
