<svg xmlns="http://www.w3.org/2000/svg" width="99.354" height="46.29" viewBox="0 0 99.354 46.29">
  <g id="bg_tialempv" transform="translate(-1127.904 -472.973)">
    <g id="Grupo_1296" data-name="Grupo 1296" transform="translate(1138.542 510.975)">
      <path id="Caminho_8547" data-name="Caminho 8547" d="M0,0A6.258,6.258,0,0,0,0-8.85l-4.4-4.4-4.4,4.4a6.258,6.258,0,0,0,0,8.85A6.241,6.241,0,0,0-4.4,1.833,6.241,6.241,0,0,0,0,0" fill="#2268b8"/>
    </g>
    <g id="Grupo_1297" data-name="Grupo 1297" transform="translate(1154.213 486.499)">
      <path id="Caminho_8548" data-name="Caminho 8548" d="M0,0H0A6.239,6.239,0,0,0-4.413-1.833,6.241,6.241,0,0,0-8.827,0a6.258,6.258,0,0,0,0,8.85l4.414,4.413L0,8.85A6.258,6.258,0,0,0,0,0" fill="#f0e665"/>
    </g>
    <g id="Grupo_1298" data-name="Grupo 1298" transform="translate(1161.057 510.975)">
      <path id="Caminho_8549" data-name="Caminho 8549" d="M0,0H0A6.241,6.241,0,0,0,4.4,1.833,6.241,6.241,0,0,0,8.805,0a6.258,6.258,0,0,0,0-8.85l-4.4-4.4L0-8.85A6.258,6.258,0,0,0,0,0" fill="#d8389c"/>
    </g>
    <g id="Grupo_1300" data-name="Grupo 1300" transform="translate(1172.725 475.988)">
      <path id="Caminho_8551" data-name="Caminho 8551" d="M0,0A10.293,10.293,0,0,1,0,14.557L-7.241,21.8l-7.242-7.243A10.293,10.293,0,0,1-14.483,0,10.266,10.266,0,0,1-7.241-3.015,10.265,10.265,0,0,1,0,0" fill="#d8389c"/>
    </g>
    <g id="Grupo_1301" data-name="Grupo 1301" transform="translate(1217.001 472.974)">
      <path id="Caminho_8552" data-name="Caminho 8552" d="M0,0A10.255,10.255,0,0,0-7.241,3.015a10.289,10.289,0,0,0,0,14.557L0,24.813-18.459,43.274a10.267,10.267,0,0,1-7.3,3.015A10.259,10.259,0,0,0-18.5,43.274a10.3,10.3,0,0,0,0-14.559l-7.259-7.259L-7.317,3.015A10.259,10.259,0,0,1,0,0" fill="#6cc247"/>
    </g>
    <g id="Grupo_1302" data-name="Grupo 1302" transform="translate(1198.502 516.248)">
      <path id="Caminho_8553" data-name="Caminho 8553" d="M0,0H0A10.263,10.263,0,0,1-7.259,3.015,10.261,10.261,0,0,1-14.518,0a10.293,10.293,0,0,1,0-14.557l7.259-7.26L0-14.557A10.293,10.293,0,0,1,0,0" fill="#f0e665"/>
    </g>
    <g id="Grupo_1303" data-name="Grupo 1303" transform="translate(1209.76 475.988)">
      <path id="Caminho_8554" data-name="Caminho 8554" d="M0,0H0A10.267,10.267,0,0,1,14.483,14.557L7.241,21.8,0,14.557A10.293,10.293,0,0,1,0,0" fill="#2268b8"/>
    </g>
    <g id="Grupo_1673" data-name="Grupo 1673" transform="translate(1183.983 516.248)">
      <path id="Caminho_8926" data-name="Caminho 8926" d="M0,0H0A10.263,10.263,0,0,0,7.259,3.015,10.262,10.262,0,0,1-.039,0L-18.5-18.459l7.243-7.243a10.293,10.293,0,0,0,0-14.557A10.267,10.267,0,0,0-18.5-43.274a10.259,10.259,0,0,1,7.317,3.015L7.259-21.817,0-14.557A10.293,10.293,0,0,0,0,0" fill="#ff9027"/>
    </g>
    <g id="Grupo_1674" data-name="Grupo 1674" transform="translate(1165.459 512.807)">
      <path id="Caminho_8927" data-name="Caminho 8927" d="M0,0A6.235,6.235,0,0,1-4.4-1.833a6.256,6.256,0,0,1,0-8.85l4.4-4.4L-11.222-26.308a6.242,6.242,0,0,0-4.438-1.833,6.237,6.237,0,0,1,4.413,1.833,6.259,6.259,0,0,1,0,8.851l-4.413,4.413L-4.448-1.833A6.238,6.238,0,0,0,0,0" fill="#ff9027"/>
    </g>
    <g id="Grupo_1675" data-name="Grupo 1675" transform="translate(1138.542 502.124)">
      <path id="Caminho_8928" data-name="Caminho 8928" d="M0,0A6.259,6.259,0,0,1,0,8.851a6.234,6.234,0,0,1-4.4,1.832A6.238,6.238,0,0,0,.045,8.851L11.257-2.361,6.845-6.775a6.256,6.256,0,0,1,0-8.85,6.218,6.218,0,0,1,3.391-1.747H10.21a6.232,6.232,0,0,0-3.39,1.747L-4.4-4.4Z" fill="#6cc247"/>
    </g>
  </g>
</svg>
