<svg xmlns="http://www.w3.org/2000/svg" width="215.703" height="31.438" viewBox="0 0 215.703 31.438">
  <g id="bg_tidialogando" transform="translate(-1393.309 -599.1)">
    <g id="Grupo_1090" data-name="Grupo 1090" transform="translate(1422.806 610.133)">
      <path id="Caminho_10391" data-name="Caminho 10391" d="M0,0A6.627,6.627,0,0,1,0,9.372l-9.092,9.092a6.627,6.627,0,0,1-9.372,0l-9.092-9.092a6.627,6.627,0,0,1,0-9.372l9.092-9.092a6.627,6.627,0,0,1,9.372,0Z" fill="#2268b8"/>
    </g>
    <g id="Grupo_1091" data-name="Grupo 1091" transform="translate(1607.071 610.133)">
      <path id="Caminho_10392" data-name="Caminho 10392" d="M0,0A6.627,6.627,0,0,1,0,9.372l-9.092,9.092a6.627,6.627,0,0,1-9.372,0l-9.092-9.092a6.627,6.627,0,0,1,0-9.372l9.092-9.092a6.627,6.627,0,0,1,9.372,0Z" fill="#2268b8"/>
    </g>
    <path id="Caminho_10395" data-name="Caminho 10395" d="M38.028,0H222.293V-31.438H38.028Z" transform="translate(1371 630.538)" fill="#2268b8"/>
  </g>
</svg>
