<svg xmlns="http://www.w3.org/2000/svg" width="19.46" height="25.425" viewBox="0 0 19.46 25.425">
  <g id="bg_timesmotempomp" transform="translate(-702 -847)">
    <path id="Caminho_12832" data-name="Caminho 12832" d="M4.19,10.155h0a3.621,3.621,0,0,0,5.135,5.108l2.554-2.554L9.325,10.155a3.631,3.631,0,0,0-5.135,0" transform="translate(702 847)" fill="#c11d7e"/>
    <path id="Caminho_12833" data-name="Caminho 12833" d="M18.39,6.184h0a3.621,3.621,0,0,0,1.063-2.56A3.618,3.618,0,0,1,18.39,6.2l-6.511,6.511L9.325,10.155a3.631,3.631,0,0,0-6.2,2.554A3.623,3.623,0,0,1,4.19,10.128l6.5-6.5,2.56,2.56a3.631,3.631,0,0,0,5.135,0" transform="translate(702 847)" fill="#70b32f"/>
    <path id="Caminho_12834" data-name="Caminho 12834" d="M18.39,1.063h0a3.626,3.626,0,1,1-5.135,5.121l-2.56-2.561,2.56-2.56a3.631,3.631,0,0,1,5.135,0" transform="translate(702 847)" fill="#e5de40"/>
    <path id="Caminho_12835" data-name="Caminho 12835" d="M18.4,19.241a3.631,3.631,0,0,0-5.135,0L10.7,21.8,4.19,15.29a3.622,3.622,0,0,1-1.063-2.581,3.631,3.631,0,0,0,6.2,2.554l2.554-2.554L18.39,19.22a3.616,3.616,0,0,1,.915,1.536,3.624,3.624,0,0,0-.908-1.515" transform="translate(702 847)" fill="#f77e0b"/>
    <path id="Caminho_12836" data-name="Caminho 12836" d="M18.4,24.361h0a3.626,3.626,0,0,0-5.135-5.121L10.7,21.8l2.56,2.56a3.631,3.631,0,0,0,5.135,0" transform="translate(702 847)" fill="#0057a5"/>
    <rect id="Retângulo_4225" data-name="Retângulo 4225" width="19.46" height="25.425" transform="translate(702 847)" fill="none"/>
  </g>
</svg>
