<svg xmlns="http://www.w3.org/2000/svg" xmlns:xlink="http://www.w3.org/1999/xlink" width="30.183" height="25.348" viewBox="0 0 30.183 25.348">
  <defs>
    <clipPath id="clip-path">
      <rect id="Ret창ngulo_4232" data-name="Ret창ngulo 4232" width="30.183" height="25.348" transform="translate(0 0)" fill="none"/>
    </clipPath>
  </defs>
  <g id="bg_tiaberturacapmp" transform="translate(0 0)">
    <g id="Grupo_5118" data-name="Grupo 5118" clip-path="url(#clip-path)">
      <path id="Caminho_12868" data-name="Caminho 12868" d="M16.958,10.075h0a3.674,3.674,0,0,1-5.2,5.189L9.16,12.67l2.6-2.6a3.679,3.679,0,0,1,5.2,0" fill="#e5de40"/>
      <path id="Ret창ngulo_4231" data-name="Ret창ngulo 4231" d="M3.223,0h7.891a3.222,3.222,0,0,1,3.222,3.222v8.366a3.222,3.222,0,0,1-3.222,3.222H3.223A3.223,3.223,0,0,1,0,11.587V3.223A3.223,3.223,0,0,1,3.223,0Z" transform="translate(8.768 16.047) rotate(-44.099)" fill="#bc1680"/>
      <path id="Caminho_12869" data-name="Caminho 12869" d="M21.309.93h0A3.163,3.163,0,0,0,19.069,0a3.163,3.163,0,0,1,2.252.93l5.7,5.7L24.783,8.861a3.177,3.177,0,0,0,2.235,5.423,3.167,3.167,0,0,1-2.258-.93L19.069,7.663l2.24-2.24a3.177,3.177,0,0,0,0-4.493" fill="#f77e0b"/>
      <path id="Caminho_12870" data-name="Caminho 12870" d="M24.783,13.354a3.176,3.176,0,0,1,0-4.493l2.235-2.234,2.234,2.234a3.169,3.169,0,1,1-4.469,4.493Z" fill="#bc1680"/>
      <path id="Caminho_12871" data-name="Caminho 12871" d="M11.12,14.284a3.177,3.177,0,0,0,2.235-5.423L11.12,6.627l5.7-5.7A3.163,3.163,0,0,1,19.069,0a3.176,3.176,0,0,0-2.24,5.422l2.24,2.241-5.691,5.691a3.167,3.167,0,0,1-2.258.93" fill="#e5de40"/>
      <path id="Caminho_12872" data-name="Caminho 12872" d="M16.828.93h0a3.172,3.172,0,0,1,4.48,4.493l-2.24,2.24-2.24-2.24a3.177,3.177,0,0,1,0-4.493" fill="#ffe700"/>
      <path id="Caminho_12873" data-name="Caminho 12873" d="M13.354,13.354h0A3.169,3.169,0,0,1,8.885,8.861l2.234-2.234,2.235,2.234a3.177,3.177,0,0,1,0,4.493" fill="#0057a5"/>
      <path id="Caminho_12874" data-name="Caminho 12874" d="M13.354,13.354a3.177,3.177,0,0,0,0-4.493L11.119,6.627,8.885,8.861a3.169,3.169,0,1,0,4.469,4.493Z" fill="#f77e0b"/>
      <path id="Caminho_12875" data-name="Caminho 12875" d="M27.018,14.284a3.177,3.177,0,0,1-2.235-5.423l2.235-2.234-5.7-5.7A3.163,3.163,0,0,0,19.069,0a3.176,3.176,0,0,1,2.24,5.422l-2.24,2.241,5.691,5.691a3.167,3.167,0,0,0,2.258.93" fill="#0057a5"/>
      <path id="Caminho_12876" data-name="Caminho 12876" d="M21.309.93h0a3.172,3.172,0,0,0-4.48,4.493l2.24,2.24,2.24-2.24a3.177,3.177,0,0,0,0-4.493" fill="#70b32f"/>
      <path id="Caminho_12877" data-name="Caminho 12877" d="M5.411.93h0A3.172,3.172,0,0,0,.931,5.423l2.24,2.24,2.24-2.24a3.177,3.177,0,0,0,0-4.493" fill="#e5de40"/>
      <path id="Caminho_12878" data-name="Caminho 12878" d="M24.783,13.354h0a3.169,3.169,0,1,0,4.469-4.493L27.018,6.627,24.783,8.861a3.176,3.176,0,0,0,0,4.493" fill="#49b394"/>
      <path id="Caminho_12879" data-name="Caminho 12879" d="M11.12,14.284A3.177,3.177,0,0,1,8.885,8.861L11.12,6.627,5.423.93A3.163,3.163,0,0,0,3.171,0a3.176,3.176,0,0,1,2.24,5.422L3.171,7.663l5.691,5.691a3.167,3.167,0,0,0,2.258.93" fill="#49b394"/>
    </g>
  </g>
</svg>
