<svg xmlns="http://www.w3.org/2000/svg" xmlns:xlink="http://www.w3.org/1999/xlink" width="25.9" height="25.552" viewBox="0 0 25.9 25.552">
  <defs>
    <clipPath id="clip-path">
      <rect id="Retângulo_4224" data-name="Retângulo 4224" width="25.9" height="25.552" transform="translate(0 0)" fill="none"/>
    </clipPath>
  </defs>
  <g id="bg_tiatividadesmp" transform="translate(0 0)">
    <g id="Grupo_5108" data-name="Grupo 5108" clip-path="url(#clip-path)">
      <path id="Caminho_12827" data-name="Caminho 12827" d="M21.244,9.337a4.68,4.68,0,0,1-4.68-4.68V0H4.693a4.681,4.681,0,0,0,0,9.361H21.22a4.664,4.664,0,0,0,3.321-1.383A4.665,4.665,0,0,1,21.244,9.337Z" fill="#f77e0b"/>
      <path id="Caminho_12828" data-name="Caminho 12828" d="M9.337,20.9a4.68,4.68,0,0,0-4.68-4.68H0V4.693a4.681,4.681,0,1,1,9.361,0V20.871a4.664,4.664,0,0,1-1.383,3.321A4.665,4.665,0,0,0,9.337,20.9Z" fill="#49b394"/>
      <path id="Caminho_12829" data-name="Caminho 12829" d="M4.668.013h0a4.674,4.674,0,1,0,.013,9.348H9.348V4.693A4.68,4.68,0,0,0,4.668.013" fill="#0057a5"/>
      <path id="Caminho_12830" data-name="Caminho 12830" d="M25.9,4.681A4.68,4.68,0,0,0,21.22,0H16.563V4.657a4.669,4.669,0,1,0,9.337.024Z" fill="#bc1680"/>
      <path id="Caminho_12831" data-name="Caminho 12831" d="M4.681,25.552A4.68,4.68,0,0,1,0,20.872V16.215H4.656a4.669,4.669,0,1,1,.025,9.337Z" fill="#bc1680"/>
    </g>
  </g>
</svg>
