<svg xmlns="http://www.w3.org/2000/svg" width="56.693" height="42.52" viewBox="0 0 56.693 42.52">
  <g id="bg_ti_conhecao" transform="translate(0 42.52)">
    <g id="Grupo_3524" data-name="Grupo 3524" transform="translate(7.087 -42.52)">
      <path id="Caminho_5209" data-name="Caminho 5209" d="M0,0-7.087,7.087,0,14.173,7.087,7.087Z" fill="#fff"/>
    </g>
    <g id="Grupo_3525" data-name="Grupo 3525" transform="translate(0 -21.26)">
      <path id="Caminho_5210" data-name="Caminho 5210" d="M0,0,7.087,7.087,14.173,0,7.087-7.087Z" fill="#fff"/>
    </g>
    <g id="Grupo_3526" data-name="Grupo 3526" transform="translate(0 -7.087)">
      <path id="Caminho_5211" data-name="Caminho 5211" d="M0,0,7.087,7.087,14.173,0,7.087-7.087Z" fill="#fff"/>
    </g>
    <g id="Grupo_3527" data-name="Grupo 3527" transform="translate(21.26 -42.52)">
      <path id="Caminho_5212" data-name="Caminho 5212" d="M0,0-7.087,7.087,0,14.173,7.087,7.087Z" fill="#fff"/>
    </g>
    <g id="Grupo_3528" data-name="Grupo 3528" transform="translate(21.26 -28.346)">
      <path id="Caminho_5213" data-name="Caminho 5213" d="M0,0-7.087,7.087,0,14.173,7.087,7.087Z" fill="#fff"/>
    </g>
    <g id="Grupo_3529" data-name="Grupo 3529" transform="translate(14.173 -7.087)">
      <path id="Caminho_5214" data-name="Caminho 5214" d="M0,0,7.087,7.087,14.173,0,7.087-7.087Z" fill="#fff"/>
    </g>
    <g id="Grupo_3530" data-name="Grupo 3530" transform="translate(35.433 -42.52)">
      <path id="Caminho_5215" data-name="Caminho 5215" d="M0,0-7.087,7.087,0,14.173,7.087,7.087Z" fill="#fff"/>
    </g>
    <g id="Grupo_3531" data-name="Grupo 3531" transform="translate(35.433 -28.346)">
      <path id="Caminho_5216" data-name="Caminho 5216" d="M0,0-7.087,7.087,0,14.173,7.087,7.087Z" fill="#fff"/>
    </g>
    <g id="Grupo_3532" data-name="Grupo 3532" transform="translate(28.346 -7.087)">
      <path id="Caminho_5217" data-name="Caminho 5217" d="M0,0,7.087,7.087,14.173,0,7.087-7.087Z" fill="#fff"/>
    </g>
    <g id="Grupo_3533" data-name="Grupo 3533" transform="translate(49.606 -42.52)">
      <path id="Caminho_5218" data-name="Caminho 5218" d="M0,0-7.087,7.087,0,14.173,7.087,7.087Z" fill="#fff"/>
    </g>
    <g id="Grupo_3534" data-name="Grupo 3534" transform="translate(42.52 -21.26)">
      <path id="Caminho_5219" data-name="Caminho 5219" d="M0,0,7.087,7.087,14.173,0,7.087-7.087Z" fill="#fff"/>
    </g>
    <g id="Grupo_3535" data-name="Grupo 3535" transform="translate(42.52 -7.087)">
      <path id="Caminho_5220" data-name="Caminho 5220" d="M0,0,7.087,7.087,14.173,0,7.087-7.087Z" fill="#fff"/>
    </g>
  </g>
</svg>
