<svg xmlns="http://www.w3.org/2000/svg" xmlns:xlink="http://www.w3.org/1999/xlink" width="26" height="25.8" viewBox="0 0 26 25.8">
  <defs>
    <clipPath id="clip-path">
      <rect id="Ret창ngulo_34" data-name="Ret창ngulo 34" width="26" height="25.8" transform="translate(448.457 421)" fill="#fff"/>
    </clipPath>
  </defs>
  <g id="bg_til_2" transform="translate(-448.457 -421)" clip-path="url(#clip-path)">
    <g id="Grupo_1072" data-name="Grupo 1072" transform="translate(4.346 -7.75)">
      <path id="Caminho_347" data-name="Caminho 347" d="M0,0-10.6,9.429" transform="translate(469.413 420.75)" fill="none" stroke="#ff7f52" stroke-linecap="round" stroke-linejoin="round" stroke-width="1.5"/>
      <path id="Caminho_349" data-name="Caminho 349" d="M0,0,.031-3.847" transform="translate(445.363 447.983)" fill="none" stroke="#ff7f52" stroke-linecap="round" stroke-linejoin="round" stroke-width="1.5"/>
      <path id="Caminho_350" data-name="Caminho 350" d="M0,0,.353-4.169" transform="translate(450.07 456.686)" fill="none" stroke="#ff7f52" stroke-linecap="round" stroke-linejoin="round" stroke-width="1.5"/>
      <path id="Caminho_351" data-name="Caminho 351" d="M0,0,1.286-5.506" transform="translate(463.94 452.057)" fill="none" stroke="#ff7f52" stroke-linecap="round" stroke-linejoin="round" stroke-width="1.5"/>
      <path id="Caminho_352" data-name="Caminho 352" d="M0,0,1.906,4.807" transform="translate(451.957 430.906)" fill="none" stroke="#ff7f52" stroke-linecap="round" stroke-linejoin="round" stroke-width="1.5"/>
      <path id="Caminho_353" data-name="Caminho 353" d="M167.614,0h25.8V-25.8h-25.8Z" transform="translate(276 454.321)" fill="none"/>
      <path id="Caminho_354" data-name="Caminho 354" d="M0,0,.353-4.169" transform="translate(449.144 439.384)" fill="none" stroke="#ff7f52" stroke-linecap="round" stroke-linejoin="round" stroke-width="1.5"/>
      <path id="Caminho_355" data-name="Caminho 355" d="M0,0,7.006,4.506" transform="translate(453.575 445.785)" fill="none" stroke="#ff7f52" stroke-linecap="round" stroke-linejoin="round" stroke-width="1.5"/>
      <path id="Caminho_356" data-name="Caminho 356" d="M0,0-6.5.638" transform="translate(468.944 431.769)" fill="none" stroke="#ff7f52" stroke-linecap="round" stroke-linejoin="round" stroke-width="1.5"/>
      <path id="Caminho_357" data-name="Caminho 357" d="M0,0-9.886,2.171" transform="translate(449.59 425.664)" fill="none" stroke="#ff7f52" stroke-linecap="round" stroke-linejoin="round" stroke-width="1.5"/>
      <path id="Caminho_358" data-name="Caminho 358" d="M0,0-6.728-3.918" transform="translate(447.471 452.668)" fill="none" stroke="#ff7f52" stroke-linecap="round" stroke-linejoin="round" stroke-width="1.5"/>
      <path id="Caminho_359" data-name="Caminho 359" d="M167.614,0h25.8V-25.8h-25.8Z" transform="translate(276 454.321)" fill="none"/>
      <path id="Caminho_360" data-name="Caminho 360" d="M0,0,7.616-1.52" transform="translate(454.826 443.426)" fill="none" stroke="#ff7f52" stroke-linecap="round" stroke-linejoin="round" stroke-width="1.5"/>
      <path id="Caminho_361" data-name="Caminho 361" d="M0,0,1.295-1.693" transform="translate(465.651 429.341)" fill="none" stroke="#ff7f52" stroke-linecap="round" stroke-linejoin="round" stroke-width="1.5" stroke-dasharray="0 4.263"/>
      <path id="Caminho_362" data-name="Caminho 362" d="M0,0H0M-2.59,3.387h0" transform="translate(468.24 425.954)" fill="none" stroke="#ff7f52" stroke-linecap="round" stroke-linejoin="round" stroke-width="1.5"/>
      <path id="Caminho_363" data-name="Caminho 363" d="M0,0-7.581-8.49" transform="translate(460.214 435.337)" fill="none" stroke="#ff7f52" stroke-linecap="round" stroke-linejoin="round" stroke-width="1.5"/>
      <path id="Caminho_364" data-name="Caminho 364" d="M0,0,7.531,4.586" transform="translate(444.36 439.074)" fill="none" stroke="#ff7f52" stroke-linecap="round" stroke-linejoin="round" stroke-width="1.5"/>
      <path id="Caminho_365" data-name="Caminho 365" d="M0,0-7.677,8.85" transform="translate(468.438 438.097)" fill="none" stroke="#ff7f52" stroke-linecap="round" stroke-linejoin="round" stroke-width="1.5"/>
      <path id="Caminho_366" data-name="Caminho 366" d="M0,0,4.685-1.637" transform="translate(457.226 453.92)" fill="none" stroke="#ff7f52" stroke-linecap="round" stroke-linejoin="round" stroke-width="1.5"/>
      <path id="Caminho_367" data-name="Caminho 367" d="M0,0-.534,1.265" transform="translate(449.938 429.384)" fill="none" stroke="#ff7f52" stroke-linecap="round" stroke-linejoin="round" stroke-width="1.5" stroke-dasharray="0 2.746"/>
      <path id="Caminho_368" data-name="Caminho 368" d="M0,0H0M1.067-2.53h0" transform="translate(448.87 431.914)" fill="none" stroke="#ff7f52" stroke-linecap="round" stroke-linejoin="round" stroke-width="1.5"/>
      <path id="Caminho_369" data-name="Caminho 369" d="M167.614,0h25.8V-25.8h-25.8Z" transform="translate(276 454.321)" fill="none"/>
      <path id="Caminho_370" data-name="Caminho 370" d="M0,0-.8-1.13" transform="translate(454.01 440.181)" fill="none" stroke="#ff7f52" stroke-linecap="round" stroke-linejoin="round" stroke-width="1.5" stroke-dasharray="0 2.768"/>
      <path id="Caminho_371" data-name="Caminho 371" d="M0,0H0M1.6,2.259h0" transform="translate(452.411 437.921)" fill="none" stroke="#ff7f52" stroke-linecap="round" stroke-linejoin="round" stroke-width="1.5"/>
      <path id="Caminho_372" data-name="Caminho 372" d="M0,0-.681-.954" transform="translate(465.733 436.453)" fill="none" stroke="#ff7f52" stroke-linecap="round" stroke-linejoin="round" stroke-width="1.5" stroke-dasharray="0 2.343"/>
      <path id="Caminho_373" data-name="Caminho 373" d="M0,0H0M1.362,1.907h0" transform="translate(464.371 434.546)" fill="none" stroke="#ff7f52" stroke-linecap="round" stroke-linejoin="round" stroke-width="1.5"/>
      <path id="Caminho_374" data-name="Caminho 374" d="M0,0-.681-.954" transform="translate(468.342 453.561)" fill="none" stroke="#ff7f52" stroke-linecap="round" stroke-linejoin="round" stroke-width="1.5" stroke-dasharray="0 2.343"/>
      <path id="Caminho_375" data-name="Caminho 375" d="M0,0H0M1.361,1.907h0" transform="translate(466.98 451.653)" fill="none" stroke="#ff7f52" stroke-linecap="round" stroke-linejoin="round" stroke-width="1.5"/>
      <path id="Caminho_376" data-name="Caminho 376" d="M0,0,1.81,5.227" transform="translate(466.9 443.312)" fill="none" stroke="#ff7f52" stroke-linecap="round" stroke-linejoin="round" stroke-width="1.5"/>
      <path id="Caminho_377" data-name="Caminho 377" d="M0,0,6.678,4.8" transform="translate(452.599 452.69)" fill="none" stroke="#ff7f52" stroke-linecap="round" stroke-linejoin="round" stroke-width="1.5"/>
      <path id="Caminho_378" data-name="Caminho 378" d="M0,0,3.4-7.264" transform="translate(444.041 436.275)" fill="none" stroke="#ff7f52" stroke-linecap="round" stroke-linejoin="round" stroke-width="1.5"/>
      <path id="Caminho_379" data-name="Caminho 379" d="M167.614,0h25.8V-25.8h-25.8Z" transform="translate(276 454.321)" fill="none"/>
      <path id="Caminho_380" data-name="Caminho 380" d="M0,0,6.594.845" transform="translate(457.368 438.007)" fill="none" stroke="#ff7f52" stroke-linecap="round" stroke-linejoin="round" stroke-width="1.5"/>
      <path id="Caminho_381" data-name="Caminho 381" d="M0,0-1.935,2.757" transform="translate(451.188 447.063)" fill="none" stroke="#ff7f52" stroke-linecap="round" stroke-linejoin="round" stroke-width="1.5"/>
      <path id="Caminho_382" data-name="Caminho 382" d="M0,0-1.193-1.193" transform="translate(455.463 451.035)" fill="none" stroke="#ff7f52" stroke-linecap="round" stroke-linejoin="round" stroke-width="1.5" stroke-dasharray="0 3.374"/>
      <path id="Caminho_383" data-name="Caminho 383" d="M0,0H0M2.386,2.386h0" transform="translate(453.078 448.649)" fill="none" stroke="#ff7f52" stroke-linecap="round" stroke-linejoin="round" stroke-width="1.5"/>
      <path id="Caminho_384" data-name="Caminho 384" d="M0,0-.526-.9" transform="translate(446.119 456.349)" fill="none" stroke="#ff7f52" stroke-linecap="round" stroke-linejoin="round" stroke-width="1.5" stroke-dasharray="0 2.093"/>
      <path id="Caminho_385" data-name="Caminho 385" d="M0,0H0M1.051,1.81h0" transform="translate(445.068 454.539)" fill="none" stroke="#ff7f52" stroke-linecap="round" stroke-linejoin="round" stroke-width="1.5"/>
      <path id="Caminho_386" data-name="Caminho 386" d="M0,0-4.278,1.81" transform="translate(443.546 430.686)" fill="none" stroke="#ff7f52" stroke-linecap="round" stroke-linejoin="round" stroke-width="1.5"/>
      <path id="Caminho_387" data-name="Caminho 387" d="M0,0-4.623-2.4" transform="translate(467.889 457.43)" fill="none" stroke="#ff7f52" stroke-linecap="round" stroke-linejoin="round" stroke-width="1.5"/>
      <path id="Caminho_388" data-name="Caminho 388" d="M167.614,0h25.8V-25.8h-25.8Z" transform="translate(276 454.321)" fill="none"/>
      <rect id="Ret창ngulo_32" data-name="Ret창ngulo 32" width="28" height="25.8" transform="translate(443 429)" fill="none"/>
    </g>
  </g>
</svg>
