<svg xmlns="http://www.w3.org/2000/svg" xmlns:xlink="http://www.w3.org/1999/xlink" width="19.46" height="25.425" viewBox="0 0 19.46 25.425">
  <defs>
    <clipPath id="clip-path">
      <rect id="Retângulo_4225" data-name="Retângulo 4225" width="19.46" height="25.425" transform="translate(0 0)" fill="none"/>
    </clipPath>
  </defs>
  <g id="bg_tideolhomp" transform="translate(0 0)">
    <g id="Grupo_5109" data-name="Grupo 5109" clip-path="url(#clip-path)">
      <path id="Caminho_12832" data-name="Caminho 12832" d="M4.19,10.155h0a3.621,3.621,0,0,0,5.135,5.108l2.554-2.554L9.325,10.155a3.631,3.631,0,0,0-5.135,0" fill="#c11d7e"/>
      <path id="Caminho_12833" data-name="Caminho 12833" d="M18.39,6.184h0a3.621,3.621,0,0,0,1.063-2.56A3.618,3.618,0,0,1,18.39,6.2l-6.511,6.511L9.325,10.155a3.631,3.631,0,0,0-6.2,2.554A3.623,3.623,0,0,1,4.19,10.128l6.5-6.5,2.56,2.56a3.631,3.631,0,0,0,5.135,0" fill="#70b32f"/>
      <path id="Caminho_12834" data-name="Caminho 12834" d="M18.39,1.063h0a3.626,3.626,0,1,1-5.135,5.121l-2.56-2.561,2.56-2.56a3.631,3.631,0,0,1,5.135,0" fill="#e5de40"/>
      <path id="Caminho_12835" data-name="Caminho 12835" d="M18.4,19.241a3.631,3.631,0,0,0-5.135,0L10.7,21.8,4.19,15.29a3.622,3.622,0,0,1-1.063-2.581,3.631,3.631,0,0,0,6.2,2.554l2.554-2.554L18.39,19.22a3.616,3.616,0,0,1,.915,1.536,3.624,3.624,0,0,0-.908-1.515" fill="#f77e0b"/>
      <path id="Caminho_12836" data-name="Caminho 12836" d="M18.4,24.361h0a3.626,3.626,0,0,0-5.135-5.121L10.7,21.8l2.56,2.56a3.631,3.631,0,0,0,5.135,0" fill="#0057a5"/>
      <path id="Caminho_12837" data-name="Caminho 12837" d="M6.462,4.294h0a1.535,1.535,0,0,1,.45,1.084,1.532,1.532,0,0,0-.45-1.09L3.7,1.531,2.624,2.613A1.537,1.537,0,0,1,0,1.531,1.529,1.529,0,0,0,.45,2.624L3.2,5.378,4.288,4.294a1.538,1.538,0,0,1,2.174,0" fill="#f77e0b"/>
      <path id="Caminho_12838" data-name="Caminho 12838" d="M.45,2.613a1.538,1.538,0,0,0,2.174,0L3.7,1.532,2.624.45A1.533,1.533,0,1,0,.45,2.613" fill="#bc1680"/>
      <path id="Caminho_12839" data-name="Caminho 12839" d="M0,9.225A1.537,1.537,0,0,1,2.624,8.144L3.7,9.225,6.462,6.468a1.535,1.535,0,0,0,.451-1.09A1.538,1.538,0,0,1,4.288,6.462L3.2,5.378.45,8.132A1.534,1.534,0,0,0,0,9.225" fill="#70b32f"/>
      <path id="Caminho_12840" data-name="Caminho 12840" d="M6.462,6.462h0A1.535,1.535,0,1,0,4.288,4.294L3.2,5.378,4.288,6.462a1.538,1.538,0,0,0,2.174,0" fill="#e5de40"/>
      <path id="Caminho_12841" data-name="Caminho 12841" d="M.45,8.144h0a1.533,1.533,0,1,0,2.174,2.163L3.7,9.225,2.624,8.144a1.538,1.538,0,0,0-2.174,0" fill="#0057a5"/>
    </g>
  </g>
</svg>
