<svg xmlns="http://www.w3.org/2000/svg" xmlns:xlink="http://www.w3.org/1999/xlink" width="32.057" height="45.596" viewBox="0 0 32.057 45.596">
  <defs>
    <clipPath id="clip-path">
      <path id="Caminho_12810" data-name="Caminho 12810" d="M0,0H32.057V-45.6H0Z" fill="none"/>
    </clipPath>
  </defs>
  <g id="bg_titulo1mp" transform="translate(0 45.596)">
    <g id="Grupo_5100" data-name="Grupo 5100" clip-path="url(#clip-path)">
      <g id="Grupo_5090" data-name="Grupo 5090" transform="translate(4.456 -34.436)">
        <path id="Caminho_12800" data-name="Caminho 12800" d="M0,0A6.565,6.565,0,0,0,9.285,0L13.9-4.619,25.678,7.155a6.566,6.566,0,0,1-9.285,9.286L0,.048A6.541,6.541,0,0,1-1.922-4.619,6.543,6.543,0,0,0,0,0" fill="#6cc247"/>
      </g>
      <g id="Grupo_5091" data-name="Grupo 5091" transform="translate(4.801 -11.16)">
        <path id="Caminho_12801" data-name="Caminho 12801" d="M0,0A6.565,6.565,0,0,1,9.285,0L13.9,4.619,25.332-6.81a6.565,6.565,0,0,0,0-9.285,6.565,6.565,0,0,0-9.285,0L0-.048A6.541,6.541,0,0,0-1.922,4.619,6.543,6.543,0,0,1,0,0" fill="#ff9027"/>
      </g>
      <g id="Grupo_5092" data-name="Grupo 5092" transform="translate(30.134 -27.256)">
        <path id="Caminho_12802" data-name="Caminho 12802" d="M0,0H0A6.544,6.544,0,0,1,1.923,4.63,6.544,6.544,0,0,1,0,9.26a6.565,6.565,0,0,1-9.285,0l-4.63-4.63L-9.285,0A6.565,6.565,0,0,1,0,0" fill="#e2e365"/>
      </g>
      <g id="Grupo_5093" data-name="Grupo 5093" transform="translate(4.801 -1.923)">
        <path id="Caminho_12803" data-name="Caminho 12803" d="M0,0A6.565,6.565,0,0,0,9.285,0L13.9-4.619,9.285-9.237A6.564,6.564,0,0,0,0-9.237,6.541,6.541,0,0,0-1.922-4.619,6.543,6.543,0,0,0,0,0" fill="#d8389c"/>
      </g>
      <g id="Grupo_5094" data-name="Grupo 5094" transform="translate(4.456 -43.673)">
        <path id="Caminho_12804" data-name="Caminho 12804" d="M0,0A6.565,6.565,0,0,1,9.285,0L13.9,4.619,9.285,9.237A6.549,6.549,0,1,1,0,0" fill="#d8389c"/>
      </g>
      <g id="Grupo_5095" data-name="Grupo 5095" transform="translate(0.805 -27.485)">
        <path id="Caminho_12805" data-name="Caminho 12805" d="M0,0A2.749,2.749,0,0,0,3.887,0L5.821-1.934,10.75,3A2.749,2.749,0,0,1,6.863,6.883L0,.02A2.744,2.744,0,0,1-.805-1.934,2.743,2.743,0,0,0,0,0" fill="#e2e365"/>
      </g>
      <g id="Grupo_5096" data-name="Grupo 5096" transform="translate(0.95 -17.741)">
        <path id="Caminho_12806" data-name="Caminho 12806" d="M0,0A2.749,2.749,0,0,1,3.887,0L5.821,1.934l4.785-4.785a2.749,2.749,0,0,0,0-3.887,2.749,2.749,0,0,0-3.888,0L0-.02A2.744,2.744,0,0,0-.805,1.934,2.743,2.743,0,0,1,0,0" fill="#ff9027"/>
      </g>
      <g id="Grupo_5097" data-name="Grupo 5097" transform="translate(11.56 -24.474)">
        <path id="Caminho_12807" data-name="Caminho 12807" d="M0,0H0A2.74,2.74,0,0,1,.805,1.938,2.742,2.742,0,0,1,0,3.877a2.749,2.749,0,0,1-3.887,0L-5.826,1.938-3.887,0A2.749,2.749,0,0,1,0,0" fill="#2268b8"/>
      </g>
      <g id="Grupo_5098" data-name="Grupo 5098" transform="translate(0.95 -13.873)">
        <path id="Caminho_12808" data-name="Caminho 12808" d="M0,0A2.749,2.749,0,0,0,3.887,0L5.821-1.934,3.887-3.867A2.747,2.747,0,0,0,0-3.867,2.741,2.741,0,0,0-.805-1.934,2.743,2.743,0,0,0,0,0" fill="#50c6a8"/>
      </g>
      <g id="Grupo_5099" data-name="Grupo 5099" transform="translate(0.805 -31.352)">
        <path id="Caminho_12809" data-name="Caminho 12809" d="M0,0A2.749,2.749,0,0,1,3.887,0L5.821,1.934,3.887,3.867A2.741,2.741,0,1,1,0,0" fill="#50c6a8"/>
      </g>
    </g>
  </g>
</svg>
