<svg xmlns="http://www.w3.org/2000/svg" width="98.808" height="31.438" viewBox="0 0 98.808 31.438">
  <g id="bg_titdialoagando" transform="translate(-1609.012 -599.1)">
    <g id="Grupo_1092" data-name="Grupo 1092" transform="translate(1638.509 610.133)">
      <path id="Caminho_10393" data-name="Caminho 10393" d="M0,0A6.627,6.627,0,0,1,0,9.372l-9.092,9.092a6.627,6.627,0,0,1-9.372,0l-9.092-9.092a6.627,6.627,0,0,1,0-9.372l9.092-9.092a6.627,6.627,0,0,1,9.372,0Z" fill="#e2e365"/>
    </g>
    <g id="Grupo_1093" data-name="Grupo 1093" transform="translate(1705.879 610.133)">
      <path id="Caminho_10394" data-name="Caminho 10394" d="M0,0A6.627,6.627,0,0,1,0,9.372l-9.092,9.092a6.627,6.627,0,0,1-9.372,0l-9.092-9.092a6.627,6.627,0,0,1,0-9.372l9.092-9.092a6.627,6.627,0,0,1,9.372,0Z" fill="#e2e365"/>
    </g>
    <path id="Caminho_10396" data-name="Caminho 10396" d="M253.731,0H321.1V-31.438h-67.37Z" transform="translate(1371 630.538)" fill="#e2e365"/>
  </g>
</svg>
