<svg xmlns="http://www.w3.org/2000/svg" width="41.544" height="41.566" viewBox="0 0 41.544 41.566">
  <g id="bg_video" transform="translate(-639.662 -448.929)">
    <g id="Grupo_728" data-name="Grupo 728" transform="translate(676 469.652)">
      <path id="Caminho_702" data-name="Caminho 702" d="M0,0-5.2,5.2,0,10.411,5.2,5.2Z" fill="#e5f3e1"/>
    </g>
    <g id="Grupo_729" data-name="Grupo 729" transform="translate(676 480.084)">
      <path id="Caminho_703" data-name="Caminho 703" d="M0,0-5.2,5.2,0,10.411,5.2,5.2Z" fill="#e5f3e1"/>
    </g>
    <g id="Grupo_730" data-name="Grupo 730" transform="translate(676 459.314)">
      <path id="Caminho_704" data-name="Caminho 704" d="M0,0-5.2,5.2,0,10.411,5.2,5.2Z" fill="#e5f3e1"/>
    </g>
    <g id="Grupo_731" data-name="Grupo 731" transform="translate(676 448.93)">
      <path id="Caminho_705" data-name="Caminho 705" d="M0,0-5.2,5.2,0,10.411,5.2,5.2Z" fill="#e5f3e1"/>
    </g>
    <g id="Grupo_732" data-name="Grupo 732" transform="translate(655.178 469.652)">
      <path id="Caminho_706" data-name="Caminho 706" d="M0,0-5.2,5.2,0,10.411,5.2,5.2Z" fill="#e5f3e1"/>
    </g>
    <g id="Grupo_733" data-name="Grupo 733" transform="translate(665.59 469.652)">
      <path id="Caminho_707" data-name="Caminho 707" d="M0,0-5.2,5.2,0,10.411,5.2,5.2Z" fill="#e5f3e1"/>
    </g>
    <g id="Grupo_734" data-name="Grupo 734" transform="translate(639.662 474.857)">
      <path id="Caminho_708" data-name="Caminho 708" d="M0,0,5.206,5.206,10.41,0l-5.2-5.2Z" fill="#e5f3e1"/>
    </g>
    <g id="Grupo_735" data-name="Grupo 735" transform="translate(655.178 480.084)">
      <path id="Caminho_709" data-name="Caminho 709" d="M0,0-5.2,5.2,0,10.411,5.2,5.2Z" fill="#e5f3e1"/>
    </g>
    <g id="Grupo_736" data-name="Grupo 736" transform="translate(665.59 480.084)">
      <path id="Caminho_710" data-name="Caminho 710" d="M0,0-5.2,5.2,0,10.411,5.2,5.2Z" fill="#e5f3e1"/>
    </g>
    <g id="Grupo_737" data-name="Grupo 737" transform="translate(639.662 485.289)">
      <path id="Caminho_711" data-name="Caminho 711" d="M0,0,5.206,5.206,10.41,0l-5.2-5.206Z" fill="#e5f3e1"/>
    </g>
    <g id="Grupo_738" data-name="Grupo 738" transform="translate(655.178 459.314)">
      <path id="Caminho_712" data-name="Caminho 712" d="M0,0-5.2,5.2,0,10.411,5.2,5.2Z" fill="#e5f3e1"/>
    </g>
    <g id="Grupo_739" data-name="Grupo 739" transform="translate(665.59 459.314)">
      <path id="Caminho_713" data-name="Caminho 713" d="M0,0-5.2,5.2,0,10.411,5.2,5.2Z" fill="#e5f3e1"/>
    </g>
    <g id="Grupo_740" data-name="Grupo 740" transform="translate(639.662 464.52)">
      <path id="Caminho_714" data-name="Caminho 714" d="M0,0,5.206,5.2,10.41,0l-5.2-5.206Z" fill="#e5f3e1"/>
    </g>
    <g id="Grupo_741" data-name="Grupo 741" transform="translate(655.178 448.93)">
      <path id="Caminho_715" data-name="Caminho 715" d="M0,0-5.2,5.2,0,10.411,5.2,5.2Z" fill="#e5f3e1"/>
    </g>
    <g id="Grupo_742" data-name="Grupo 742" transform="translate(665.59 448.93)">
      <path id="Caminho_716" data-name="Caminho 716" d="M0,0-5.2,5.2,0,10.411,5.2,5.2Z" fill="#e5f3e1"/>
    </g>
    <g id="Grupo_743" data-name="Grupo 743" transform="translate(639.662 454.135)">
      <path id="Caminho_717" data-name="Caminho 717" d="M0,0,5.206,5.206,10.41,0l-5.2-5.206Z" fill="#e5f3e1"/>
    </g>
  </g>
</svg>
