<svg xmlns="http://www.w3.org/2000/svg" xmlns:xlink="http://www.w3.org/1999/xlink" width="56.693" height="48.756" viewBox="0 0 56.693 48.756">
  <defs>
    <clipPath id="clip-path">
      <path id="Caminho_170" data-name="Caminho 170" d="M538.582,0h56.693V-48.756H538.582Z" transform="translate(784.418 213.756)" fill="none"/>
    </clipPath>
  </defs>
  <g id="bg_verd" transform="translate(-1323 -165)" clip-path="url(#clip-path)">
    <path id="Caminho_107" data-name="Caminho 107" d="M538.582,0h56.693V-48.756H538.582Z" transform="translate(784.418 213.756)" fill="none"/>
    <path id="Caminho_112" data-name="Caminho 112" d="M538.582,0h56.693V-48.756H538.582Z" transform="translate(784.418 213.756)" fill="none"/>
    <path id="Caminho_117" data-name="Caminho 117" d="M538.582,0h56.693V-48.756H538.582Z" transform="translate(784.418 213.756)" fill="none"/>
    <path id="Caminho_123" data-name="Caminho 123" d="M538.582,0h56.693V-48.756H538.582Z" transform="translate(784.418 213.756)" fill="none"/>
    <path id="Caminho_128" data-name="Caminho 128" d="M538.582,0h56.693V-48.756H538.582Z" transform="translate(784.418 213.756)" fill="none"/>
    <path id="Caminho_137" data-name="Caminho 137" d="M538.582,0h56.693V-48.756H538.582Z" transform="translate(784.418 213.756)" fill="none"/>
    <path id="Caminho_141" data-name="Caminho 141" d="M538.582,0h56.693V-48.756H538.582Z" transform="translate(784.418 213.756)" fill="none"/>
    <path id="Caminho_151" data-name="Caminho 151" d="M538.582,0h56.693V-48.756H538.582Z" transform="translate(784.418 213.756)" fill="none"/>
    <path id="Caminho_159" data-name="Caminho 159" d="M538.582,0h56.693V-48.756H538.582Z" transform="translate(784.418 213.756)" fill="none"/>
    <path id="Caminho_163" data-name="Caminho 163" d="M538.582,0h56.693V-48.756H538.582Z" transform="translate(784.418 213.756)" fill="none"/>
    <g id="Grupo_1077" data-name="Grupo 1077" transform="translate(15.509 -82.127)">
      <path id="Caminho_102" data-name="Caminho 102" d="M0,0-16.839-14.977" transform="translate(1346.668 301.484)" fill="none" stroke="#c0e2a7" stroke-linecap="round" stroke-linejoin="round" stroke-width="2.235"/>
      <path id="Caminho_103" data-name="Caminho 103" d="M0,0,11.194-.235" transform="translate(1293.491 270.078)" fill="none" stroke="#c0e2a7" stroke-linecap="round" stroke-linejoin="round" stroke-width="2.235"/>
      <path id="Caminho_104" data-name="Caminho 104" d="M0,0-2.869-10.222" transform="translate(1328.794 301.484)" fill="none" stroke="#c0e2a7" stroke-linecap="round" stroke-linejoin="round" stroke-width="2.235"/>
      <path id="Caminho_105" data-name="Caminho 105" d="M0,0,.05,6.111" transform="translate(1308.468 258.229)" fill="none" stroke="#c0e2a7" stroke-linecap="round" stroke-linejoin="round" stroke-width="2.235"/>
      <path id="Caminho_106" data-name="Caminho 106" d="M0,0,.56,6.622" transform="translate(1315.945 244.406)" fill="none" stroke="#c0e2a7" stroke-linecap="round" stroke-linejoin="round" stroke-width="2.235"/>
      <path id="Caminho_108" data-name="Caminho 108" d="M0,0,2.042,8.745" transform="translate(1337.975 251.76)" fill="none" stroke="#c0e2a7" stroke-linecap="round" stroke-linejoin="round" stroke-width="2.235"/>
      <path id="Caminho_109" data-name="Caminho 109" d="M0,0,3.027-7.635" transform="translate(1318.942 285.354)" fill="none" stroke="#c0e2a7" stroke-linecap="round" stroke-linejoin="round" stroke-width="2.235"/>
      <path id="Caminho_110" data-name="Caminho 110" d="M0,0,.561,6.622" transform="translate(1314.474 271.888)" fill="none" stroke="#c0e2a7" stroke-linecap="round" stroke-linejoin="round" stroke-width="2.235"/>
      <path id="Caminho_111" data-name="Caminho 111" d="M0,0-8.383,4.949" transform="translate(1311.96 296.634)" fill="none" stroke="#c0e2a7" stroke-linecap="round" stroke-linejoin="round" stroke-width="2.235"/>
      <path id="Caminho_113" data-name="Caminho 113" d="M0,0,11.127-7.157" transform="translate(1321.512 261.72)" fill="none" stroke="#c0e2a7" stroke-linecap="round" stroke-linejoin="round" stroke-width="2.235"/>
      <path id="Caminho_114" data-name="Caminho 114" d="M0,0-10.322-1.013" transform="translate(1345.923 283.983)" fill="none" stroke="#c0e2a7" stroke-linecap="round" stroke-linejoin="round" stroke-width="2.235"/>
      <path id="Caminho_115" data-name="Caminho 115" d="M0,0-15.7-3.448" transform="translate(1315.183 293.68)" fill="none" stroke="#c0e2a7" stroke-linecap="round" stroke-linejoin="round" stroke-width="2.235"/>
      <path id="Caminho_116" data-name="Caminho 116" d="M0,0-10.686,6.224" transform="translate(1311.818 250.789)" fill="none" stroke="#c0e2a7" stroke-linecap="round" stroke-linejoin="round" stroke-width="2.235"/>
      <path id="Caminho_118" data-name="Caminho 118" d="M0,0,12.1,2.414" transform="translate(1323.499 265.469)" fill="none" stroke="#c0e2a7" stroke-linecap="round" stroke-linejoin="round" stroke-width="2.235"/>
      <path id="Caminho_119" data-name="Caminho 119" d="M0,0-1.028-1.345" transform="translate(1342.75 290.529)" fill="none" stroke="#c0e2a7" stroke-linecap="round" stroke-linejoin="round" stroke-width="2.235" stroke-dasharray="0 3.386"/>
      <path id="Caminho_120" data-name="Caminho 120" d="M0,0H0M-4.113-5.379h0" transform="translate(1344.806 293.219)" fill="none" stroke="#c0e2a7" stroke-linecap="round" stroke-linejoin="round" stroke-width="2.235"/>
      <path id="Caminho_121" data-name="Caminho 121" d="M0,0-12.041,13.484" transform="translate(1332.058 278.315)" fill="none" stroke="#c0e2a7" stroke-linecap="round" stroke-linejoin="round" stroke-width="2.235"/>
      <path id="Caminho_122" data-name="Caminho 122" d="M0,0,11.962-7.284" transform="translate(1306.876 272.381)" fill="none" stroke="#c0e2a7" stroke-linecap="round" stroke-linejoin="round" stroke-width="2.235"/>
      <path id="Caminho_124" data-name="Caminho 124" d="M0,0-12.194-14.056" transform="translate(1345.12 273.933)" fill="none" stroke="#c0e2a7" stroke-linecap="round" stroke-linejoin="round" stroke-width="2.235"/>
      <path id="Caminho_125" data-name="Caminho 125" d="M0,0,5.371,6.177" transform="translate(1298.121 259.967)" fill="none" stroke="#c0e2a7" stroke-linecap="round" stroke-linejoin="round" stroke-width="2.235"/>
      <path id="Caminho_126" data-name="Caminho 126" d="M0,0,7.441,2.6" transform="translate(1327.311 248.8)" fill="none" stroke="#c0e2a7" stroke-linecap="round" stroke-linejoin="round" stroke-width="2.235"/>
      <path id="Caminho_127" data-name="Caminho 127" d="M0,0,5.207,1.267" transform="translate(1299.628 245.004)" fill="none" stroke="#c0e2a7" stroke-linecap="round" stroke-linejoin="round" stroke-width="2.235"/>
      <path id="Caminho_129" data-name="Caminho 129" d="M0,0-.848-2.009" transform="translate(1315.735 287.771)" fill="none" stroke="#c0e2a7" stroke-linecap="round" stroke-linejoin="round" stroke-width="2.235" stroke-dasharray="0 4.362"/>
      <path id="Caminho_130" data-name="Caminho 130" d="M0,0H0M1.7,4.018h0" transform="translate(1314.039 283.753)" fill="none" stroke="#c0e2a7" stroke-linecap="round" stroke-linejoin="round" stroke-width="2.235"/>
      <path id="Caminho_131" data-name="Caminho 131" d="M0,0-1.27,1.794" transform="translate(1322.204 270.623)" fill="none" stroke="#c0e2a7" stroke-linecap="round" stroke-linejoin="round" stroke-width="2.235" stroke-dasharray="0 4.396"/>
      <path id="Caminho_132" data-name="Caminho 132" d="M0,0H0M2.54-3.588h0" transform="translate(1319.664 274.211)" fill="none" stroke="#c0e2a7" stroke-linecap="round" stroke-linejoin="round" stroke-width="2.235"/>
      <path id="Caminho_133" data-name="Caminho 133" d="M0,0-1.081,1.515" transform="translate(1340.823 276.543)" fill="none" stroke="#c0e2a7" stroke-linecap="round" stroke-linejoin="round" stroke-width="2.235" stroke-dasharray="0 3.722"/>
      <path id="Caminho_134" data-name="Caminho 134" d="M0,0H0M2.163-3.029h0" transform="translate(1338.66 279.572)" fill="none" stroke="#c0e2a7" stroke-linecap="round" stroke-linejoin="round" stroke-width="2.235"/>
      <path id="Caminho_135" data-name="Caminho 135" d="M0,0-1.081,1.515" transform="translate(1344.966 249.371)" fill="none" stroke="#c0e2a7" stroke-linecap="round" stroke-linejoin="round" stroke-width="2.235" stroke-dasharray="0 3.722"/>
      <path id="Caminho_136" data-name="Caminho 136" d="M0,0H0M2.162-3.029h0" transform="translate(1342.804 252.4)" fill="none" stroke="#c0e2a7" stroke-linecap="round" stroke-linejoin="round" stroke-width="2.235"/>
      <path id="Caminho_138" data-name="Caminho 138" d="M0,0,2.875-8.3" transform="translate(1342.676 265.648)" fill="none" stroke="#c0e2a7" stroke-linecap="round" stroke-linejoin="round" stroke-width="2.235"/>
      <path id="Caminho_139" data-name="Caminho 139" d="M0,0,10.607-7.627" transform="translate(1319.961 250.754)" fill="none" stroke="#c0e2a7" stroke-linecap="round" stroke-linejoin="round" stroke-width="2.235"/>
      <path id="Caminho_140" data-name="Caminho 140" d="M0,0,5.393,11.537" transform="translate(1306.37 276.826)" fill="none" stroke="#c0e2a7" stroke-linecap="round" stroke-linejoin="round" stroke-width="2.235"/>
      <path id="Caminho_142" data-name="Caminho 142" d="M0,0,10.474-1.343" transform="translate(1327.537 274.074)" fill="none" stroke="#c0e2a7" stroke-linecap="round" stroke-linejoin="round" stroke-width="2.235"/>
      <path id="Caminho_143" data-name="Caminho 143" d="M0,0-3.073-4.379" transform="translate(1317.721 259.691)" fill="none" stroke="#c0e2a7" stroke-linecap="round" stroke-linejoin="round" stroke-width="2.235"/>
      <path id="Caminho_144" data-name="Caminho 144" d="M0,0-1.895,1.895" transform="translate(1324.512 253.383)" fill="none" stroke="#c0e2a7" stroke-linecap="round" stroke-linejoin="round" stroke-width="2.235" stroke-dasharray="0 5.359"/>
      <path id="Caminho_145" data-name="Caminho 145" d="M0,0H0M3.789-3.789h0" transform="translate(1320.722 257.172)" fill="none" stroke="#c0e2a7" stroke-linecap="round" stroke-linejoin="round" stroke-width="2.235"/>
      <path id="Caminho_146" data-name="Caminho 146" d="M0,0-.835,1.437" transform="translate(1309.67 244.943)" fill="none" stroke="#c0e2a7" stroke-linecap="round" stroke-linejoin="round" stroke-width="2.235" stroke-dasharray="0 3.324"/>
      <path id="Caminho_147" data-name="Caminho 147" d="M0,0H0M1.67-2.875h0" transform="translate(1308 247.817)" fill="none" stroke="#c0e2a7" stroke-linecap="round" stroke-linejoin="round" stroke-width="2.235"/>
      <path id="Caminho_148" data-name="Caminho 148" d="M0,0-6.8-2.875" transform="translate(1305.584 285.703)" fill="none" stroke="#c0e2a7" stroke-linecap="round" stroke-linejoin="round" stroke-width="2.235"/>
      <path id="Caminho_149" data-name="Caminho 149" d="M0,0-7.343,3.805" transform="translate(1344.248 243.224)" fill="none" stroke="#c0e2a7" stroke-linecap="round" stroke-linejoin="round" stroke-width="2.235"/>
      <path id="Caminho_150" data-name="Caminho 150" d="M0,0,11.194-.235" transform="translate(1355.539 270.078)" fill="none" stroke="#c0e2a7" stroke-linecap="round" stroke-linejoin="round" stroke-width="2.235"/>
      <path id="Caminho_152" data-name="Caminho 152" d="M0,0-6.777,5.313" transform="translate(1356.947 273.722)" fill="none" stroke="#c0e2a7" stroke-linecap="round" stroke-linejoin="round" stroke-width="2.235"/>
      <path id="Caminho_153" data-name="Caminho 153" d="M0,0-15.7-3.448" transform="translate(1377.231 293.68)" fill="none" stroke="#c0e2a7" stroke-linecap="round" stroke-linejoin="round" stroke-width="2.235"/>
      <path id="Caminho_154" data-name="Caminho 154" d="M0,0,6.971,12.846" transform="translate(1351.201 284.827)" fill="none" stroke="#c0e2a7" stroke-linecap="round" stroke-linejoin="round" stroke-width="2.235"/>
      <path id="Caminho_155" data-name="Caminho 155" d="M0,0,5.371,6.177" transform="translate(1360.17 259.967)" fill="none" stroke="#c0e2a7" stroke-linecap="round" stroke-linejoin="round" stroke-width="2.235"/>
      <path id="Caminho_156" data-name="Caminho 156" d="M0,0,5.207,1.267" transform="translate(1361.677 245.004)" fill="none" stroke="#c0e2a7" stroke-linecap="round" stroke-linejoin="round" stroke-width="2.235"/>
      <path id="Caminho_157" data-name="Caminho 157" d="M0,0-.562-2.99" transform="translate(1357.894 287.503)" fill="none" stroke="#c0e2a7" stroke-linecap="round" stroke-linejoin="round" stroke-width="2.235" stroke-dasharray="0 6.084"/>
      <path id="Caminho_158" data-name="Caminho 158" d="M0,0H0M1.124,5.979h0" transform="translate(1356.77 281.523)" fill="none" stroke="#c0e2a7" stroke-linecap="round" stroke-linejoin="round" stroke-width="2.235"/>
      <path id="Caminho_160" data-name="Caminho 160" d="M0,0,.741-1.564" transform="translate(1355.474 257.172)" fill="none" stroke="#c0e2a7" stroke-linecap="round" stroke-linejoin="round" stroke-width="2.235" stroke-dasharray="0 3.462"/>
      <path id="Caminho_161" data-name="Caminho 161" d="M0,0H0M-1.482,3.128h0" transform="translate(1356.957 254.044)" fill="none" stroke="#c0e2a7" stroke-linecap="round" stroke-linejoin="round" stroke-width="2.235"/>
      <path id="Caminho_162" data-name="Caminho 162" d="M0,0-.76,7.6" transform="translate(1351.45 293.927)" fill="none" stroke="#c0e2a7" stroke-linecap="round" stroke-linejoin="round" stroke-width="2.235"/>
      <path id="Caminho_164" data-name="Caminho 164" d="M0,0-.751-8.754" transform="translate(1351.038 262.653)" fill="none" stroke="#c0e2a7" stroke-linecap="round" stroke-linejoin="round" stroke-width="2.235"/>
      <path id="Caminho_165" data-name="Caminho 165" d="M0,0-10.091-3.564" transform="translate(1360.975 249.301)" fill="none" stroke="#c0e2a7" stroke-linecap="round" stroke-linejoin="round" stroke-width="2.235"/>
      <path id="Caminho_166" data-name="Caminho 166" d="M0,0-3.345,4.648" transform="translate(1365.247 294.7)" fill="none" stroke="#c0e2a7" stroke-linecap="round" stroke-linejoin="round" stroke-width="2.235"/>
      <path id="Caminho_167" data-name="Caminho 167" d="M0,0-6.8-2.875" transform="translate(1367.632 285.703)" fill="none" stroke="#c0e2a7" stroke-linecap="round" stroke-linejoin="round" stroke-width="2.235"/>
      <path id="Caminho_168" data-name="Caminho 168" d="M0,0-1.483-5.393" transform="translate(1363.571 279.612)" fill="none" stroke="#c0e2a7" stroke-linecap="round" stroke-linejoin="round" stroke-width="2.235"/>
      <path id="Caminho_169" data-name="Caminho 169" d="M0,0,4.028-1.343" transform="translate(1353.724 264.801)" fill="none" stroke="#c0e2a7" stroke-linecap="round" stroke-linejoin="round" stroke-width="2.235"/>
      <path id="Caminho_171" data-name="Caminho 171" d="M0,0,.264-4.238" transform="translate(1350.237 272.858)" fill="none" stroke="#c0e2a7" stroke-linecap="round" stroke-linejoin="round" stroke-width="2.235"/>
    </g>
  </g>
</svg>
