<svg xmlns="http://www.w3.org/2000/svg" width="47.079" height="90.601" viewBox="0 0 47.079 90.601">
  <g id="bg_vamoscomecar" transform="translate(-1298 -206.573)">
    <g id="Grupo_901" data-name="Grupo 901" transform="translate(1341.748 209.397)">
      <path id="Caminho_8536" data-name="Caminho 8536" d="M0,0A9.641,9.641,0,0,0-13.636,0L-20.42,6.783-37.2,23.567a9.641,9.641,0,0,0,0,13.636,9.641,9.641,0,0,0,13.636,0L0,13.636A9.609,9.609,0,0,0,2.823,6.783,9.611,9.611,0,0,0,0,0" fill="#50c6a8"/>
    </g>
    <g id="Grupo_902" data-name="Grupo 902" transform="translate(1304.544 246.601)">
      <path id="Caminho_8537" data-name="Caminho 8537" d="M0,0A9.641,9.641,0,0,0,13.636,0l6.783-6.783L37.711,10.508A9.642,9.642,0,0,1,24.075,24.145L0,.07A9.609,9.609,0,0,1-2.823-6.783,9.611,9.611,0,0,0,0,0" fill="#ff9027"/>
    </g>
    <g id="Grupo_903" data-name="Grupo 903" transform="translate(1305.051 280.783)">
      <path id="Caminho_8538" data-name="Caminho 8538" d="M0,0A9.641,9.641,0,0,1,13.636,0l6.783,6.783L37.2-10a9.641,9.641,0,0,0,0-13.636,9.641,9.641,0,0,0-13.636,0L0-.07A9.611,9.611,0,0,0-2.823,6.783,9.611,9.611,0,0,1,0,0" fill="#50c6a8"/>
    </g>
    <g id="Grupo_904" data-name="Grupo 904" transform="translate(1342.255 257.146)">
      <path id="Caminho_8539" data-name="Caminho 8539" d="M0,0H0A9.613,9.613,0,0,1,2.824,6.8,9.617,9.617,0,0,1,0,13.6a9.643,9.643,0,0,1-13.636,0l-6.8-6.8,6.8-6.8A9.641,9.641,0,0,1,0,0" fill="#e2e365"/>
    </g>
    <g id="Grupo_905" data-name="Grupo 905" transform="translate(1305.051 294.349)">
      <path id="Caminho_8540" data-name="Caminho 8540" d="M0,0A9.641,9.641,0,0,0,13.636,0l6.783-6.783-6.783-6.783A9.641,9.641,0,0,0,0-13.566,9.611,9.611,0,0,0-2.823-6.783,9.611,9.611,0,0,0,0,0" fill="#ff2d30"/>
    </g>
    <g id="Grupo_906" data-name="Grupo 906" transform="translate(1304.544 233.035)">
      <path id="Caminho_8541" data-name="Caminho 8541" d="M0,0A9.641,9.641,0,0,1,13.636,0L20.42,6.783l-6.784,6.783A9.617,9.617,0,1,1,0,0" fill="#ff2d30"/>
    </g>
    <g id="Grupo_907" data-name="Grupo 907" transform="translate(1299.182 256.809)">
      <path id="Caminho_8542" data-name="Caminho 8542" d="M0,0A4.038,4.038,0,0,0,5.709,0l2.84-2.84L15.788,4.4a4.037,4.037,0,0,1-5.709,5.709L0,.029A4.023,4.023,0,0,1-1.182-2.84,4.029,4.029,0,0,0,0,0" fill="#50c6a8"/>
    </g>
    <g id="Grupo_908" data-name="Grupo 908" transform="translate(1299.395 271.12)">
      <path id="Caminho_8543" data-name="Caminho 8543" d="M0,0A4.038,4.038,0,0,1,5.709,0l2.84,2.84,7.026-7.027a4.036,4.036,0,0,0,0-5.709,4.038,4.038,0,0,0-5.709,0L0-.029A4.023,4.023,0,0,0-1.182,2.84,4.024,4.024,0,0,1,0,0" fill="#ff9027"/>
    </g>
    <g id="Grupo_909" data-name="Grupo 909" transform="translate(1314.978 261.231)">
      <path id="Caminho_8544" data-name="Caminho 8544" d="M0,0H0A4.024,4.024,0,0,1,1.182,2.847,4.028,4.028,0,0,1,0,5.694a4.038,4.038,0,0,1-5.709,0L-8.556,2.847-5.709,0A4.038,4.038,0,0,1,0,0" fill="#e2e365"/>
    </g>
    <g id="Grupo_910" data-name="Grupo 910" transform="translate(1299.395 276.799)">
      <path id="Caminho_8545" data-name="Caminho 8545" d="M0,0A4.038,4.038,0,0,0,5.709,0l2.84-2.84L5.709-5.68A4.038,4.038,0,0,0,0-5.68,4.024,4.024,0,0,0-1.182-2.84,4.024,4.024,0,0,0,0,0" fill="#ff2d30"/>
    </g>
    <g id="Grupo_911" data-name="Grupo 911" transform="translate(1299.182 251.129)">
      <path id="Caminho_8546" data-name="Caminho 8546" d="M0,0A4.038,4.038,0,0,1,5.709,0l2.84,2.84L5.709,5.68A4.027,4.027,0,1,1,0,0" fill="#ff2d30"/>
    </g>
  </g>
</svg>
